G04 #@! TF.GenerationSoftware,KiCad,Pcbnew,(5.99.0-1907-g1c46bf195)*
G04 #@! TF.CreationDate,2020-10-23T20:38:11+00:00*
G04 #@! TF.ProjectId,USB PMOD Panelised,55534220-504d-44f4-9420-50616e656c69,rev?*
G04 #@! TF.SameCoordinates,Original*
G04 #@! TF.FileFunction,Soldermask,Top*
G04 #@! TF.FilePolarity,Negative*
%FSLAX46Y46*%
G04 Gerber Fmt 4.6, Leading zero omitted, Abs format (unit mm)*
G04 Created by KiCad (PCBNEW (5.99.0-1907-g1c46bf195)) date 2020-10-23 20:38:11*
%MOMM*%
%LPD*%
G01*
G04 APERTURE LIST*
%ADD10C,2.000000*%
%ADD11C,1.000000*%
%ADD12C,1.100000*%
%ADD13C,0.900000*%
%ADD14C,6.500000*%
%ADD15O,1.800000X1.800000*%
G04 APERTURE END LIST*
D10*
G04 #@! TO.C,REF\u002A\u002A*
X174300000Y-128550000D03*
G04 #@! TD*
G04 #@! TO.C,REF\u002A\u002A*
X78300000Y-40550000D03*
G04 #@! TD*
G04 #@! TO.C,J1*
G36*
G01*
X149400000Y-44850000D02*
X147350000Y-44850000D01*
G75*
G02*
X147300000Y-44800000I0J50000D01*
G01*
X147300000Y-40800000D01*
G75*
G02*
X147350000Y-40750000I50000J0D01*
G01*
X149400000Y-40750000D01*
G75*
G02*
X149450000Y-40800000I0J-50000D01*
G01*
X149450000Y-44800000D01*
G75*
G02*
X149400000Y-44850000I-50000J0D01*
G01*
G37*
G36*
G01*
X159250000Y-44850000D02*
X157200000Y-44850000D01*
G75*
G02*
X157150000Y-44800000I0J50000D01*
G01*
X157150000Y-40800000D01*
G75*
G02*
X157200000Y-40750000I50000J0D01*
G01*
X159250000Y-40750000D01*
G75*
G02*
X159300000Y-40800000I0J-50000D01*
G01*
X159300000Y-44800000D01*
G75*
G02*
X159250000Y-44850000I-50000J0D01*
G01*
G37*
G36*
G01*
X149400000Y-48850000D02*
X147350000Y-48850000D01*
G75*
G02*
X147300000Y-48800000I0J50000D01*
G01*
X147300000Y-45300000D01*
G75*
G02*
X147350000Y-45250000I50000J0D01*
G01*
X149400000Y-45250000D01*
G75*
G02*
X149450000Y-45300000I0J-50000D01*
G01*
X149450000Y-48800000D01*
G75*
G02*
X149400000Y-48850000I-50000J0D01*
G01*
G37*
G36*
G01*
X159250000Y-48850000D02*
X157200000Y-48850000D01*
G75*
G02*
X157150000Y-48800000I0J50000D01*
G01*
X157150000Y-45300000D01*
G75*
G02*
X157200000Y-45250000I50000J0D01*
G01*
X159250000Y-45250000D01*
G75*
G02*
X159300000Y-45300000I0J-50000D01*
G01*
X159300000Y-48800000D01*
G75*
G02*
X159250000Y-48850000I-50000J0D01*
G01*
G37*
D11*
X155500000Y-44750000D03*
X151100000Y-44750000D03*
G36*
G01*
X151400000Y-48175000D02*
X151400000Y-45925000D01*
G75*
G02*
X151450000Y-45875000I50000J0D01*
G01*
X151950000Y-45875000D01*
G75*
G02*
X152000000Y-45925000I0J-50000D01*
G01*
X152000000Y-48175000D01*
G75*
G02*
X151950000Y-48225000I-50000J0D01*
G01*
X151450000Y-48225000D01*
G75*
G02*
X151400000Y-48175000I0J50000D01*
G01*
G37*
G36*
G01*
X152200000Y-48175000D02*
X152200000Y-45925000D01*
G75*
G02*
X152250000Y-45875000I50000J0D01*
G01*
X152750000Y-45875000D01*
G75*
G02*
X152800000Y-45925000I0J-50000D01*
G01*
X152800000Y-48175000D01*
G75*
G02*
X152750000Y-48225000I-50000J0D01*
G01*
X152250000Y-48225000D01*
G75*
G02*
X152200000Y-48175000I0J50000D01*
G01*
G37*
G36*
G01*
X153000000Y-48175000D02*
X153000000Y-45925000D01*
G75*
G02*
X153050000Y-45875000I50000J0D01*
G01*
X153550000Y-45875000D01*
G75*
G02*
X153600000Y-45925000I0J-50000D01*
G01*
X153600000Y-48175000D01*
G75*
G02*
X153550000Y-48225000I-50000J0D01*
G01*
X153050000Y-48225000D01*
G75*
G02*
X153000000Y-48175000I0J50000D01*
G01*
G37*
G36*
G01*
X153800000Y-48175000D02*
X153800000Y-45925000D01*
G75*
G02*
X153850000Y-45875000I50000J0D01*
G01*
X154350000Y-45875000D01*
G75*
G02*
X154400000Y-45925000I0J-50000D01*
G01*
X154400000Y-48175000D01*
G75*
G02*
X154350000Y-48225000I-50000J0D01*
G01*
X153850000Y-48225000D01*
G75*
G02*
X153800000Y-48175000I0J50000D01*
G01*
G37*
G36*
G01*
X154600000Y-48175000D02*
X154600000Y-45925000D01*
G75*
G02*
X154650000Y-45875000I50000J0D01*
G01*
X155150000Y-45875000D01*
G75*
G02*
X155200000Y-45925000I0J-50000D01*
G01*
X155200000Y-48175000D01*
G75*
G02*
X155150000Y-48225000I-50000J0D01*
G01*
X154650000Y-48225000D01*
G75*
G02*
X154600000Y-48175000I0J50000D01*
G01*
G37*
G04 #@! TD*
D12*
G04 #@! TO.C,REF\u002A\u002A*
X109100000Y-87850000D03*
X109100000Y-89316667D03*
X109100000Y-90783333D03*
X107500000Y-87850000D03*
X107500000Y-89316667D03*
X107500000Y-90783333D03*
X109100000Y-92250000D03*
X107500000Y-92250000D03*
G04 #@! TD*
G04 #@! TO.C,REF\u002A\u002A*
X91100000Y-87850000D03*
X91100000Y-89316667D03*
X91100000Y-90783333D03*
X89500000Y-87850000D03*
X89500000Y-89316667D03*
X89500000Y-90783333D03*
X91100000Y-92250000D03*
X89500000Y-92250000D03*
G04 #@! TD*
G04 #@! TO.C,REF\u002A\u002A*
X163100000Y-106050000D03*
X163100000Y-107516667D03*
X163100000Y-108983333D03*
X161500000Y-106050000D03*
X161500000Y-107516667D03*
X161500000Y-108983333D03*
X163100000Y-110450000D03*
X161500000Y-110450000D03*
G04 #@! TD*
G04 #@! TO.C,REF\u002A\u002A*
X163100000Y-58550000D03*
X163100000Y-60016667D03*
X163100000Y-61483333D03*
X161500000Y-58550000D03*
X161500000Y-60016667D03*
X161500000Y-61483333D03*
X163100000Y-62950000D03*
X161500000Y-62950000D03*
G04 #@! TD*
G04 #@! TO.C,REF\u002A\u002A*
X127100000Y-58550000D03*
X127100000Y-60016667D03*
X127100000Y-61483333D03*
X125500000Y-58550000D03*
X125500000Y-60016667D03*
X125500000Y-61483333D03*
X127100000Y-62950000D03*
X125500000Y-62950000D03*
G04 #@! TD*
G04 #@! TO.C,REF\u002A\u002A*
X163100000Y-124350000D03*
X163100000Y-125816667D03*
X163100000Y-127283333D03*
X161500000Y-124350000D03*
X161500000Y-125816667D03*
X161500000Y-127283333D03*
X163100000Y-128750000D03*
X161500000Y-128750000D03*
G04 #@! TD*
G04 #@! TO.C,REF\u002A\u002A*
X109100000Y-124350000D03*
X109100000Y-125816667D03*
X109100000Y-127283333D03*
X107500000Y-124350000D03*
X107500000Y-125816667D03*
X107500000Y-127283333D03*
X109100000Y-128750000D03*
X107500000Y-128750000D03*
G04 #@! TD*
G04 #@! TO.C,REF\u002A\u002A*
X163100000Y-76850000D03*
X163100000Y-78316667D03*
X163100000Y-79783333D03*
X161500000Y-76850000D03*
X161500000Y-78316667D03*
X161500000Y-79783333D03*
X163100000Y-81250000D03*
X161500000Y-81250000D03*
G04 #@! TD*
G04 #@! TO.C,REF\u002A\u002A*
X145100000Y-124350000D03*
X145100000Y-125816667D03*
X145100000Y-127283333D03*
X143500000Y-124350000D03*
X143500000Y-125816667D03*
X143500000Y-127283333D03*
X145100000Y-128750000D03*
X143500000Y-128750000D03*
G04 #@! TD*
G04 #@! TO.C,REF\u002A\u002A*
X127100000Y-124350000D03*
X127100000Y-125816667D03*
X127100000Y-127283333D03*
X125500000Y-124350000D03*
X125500000Y-125816667D03*
X125500000Y-127283333D03*
X127100000Y-128750000D03*
X125500000Y-128750000D03*
G04 #@! TD*
G04 #@! TO.C,REF\u002A\u002A*
X91100000Y-124350000D03*
X91100000Y-125816667D03*
X91100000Y-127283333D03*
X89500000Y-124350000D03*
X89500000Y-125816667D03*
X89500000Y-127283333D03*
X91100000Y-128750000D03*
X89500000Y-128750000D03*
G04 #@! TD*
G04 #@! TO.C,REF\u002A\u002A*
X145100000Y-76850000D03*
X145100000Y-78316667D03*
X145100000Y-79783333D03*
X143500000Y-76850000D03*
X143500000Y-78316667D03*
X143500000Y-79783333D03*
X145100000Y-81250000D03*
X143500000Y-81250000D03*
G04 #@! TD*
G04 #@! TO.C,REF\u002A\u002A*
X127100000Y-76850000D03*
X127100000Y-78316667D03*
X127100000Y-79783333D03*
X125500000Y-76850000D03*
X125500000Y-78316667D03*
X125500000Y-79783333D03*
X127100000Y-81250000D03*
X125500000Y-81250000D03*
G04 #@! TD*
G04 #@! TO.C,REF\u002A\u002A*
X109100000Y-76850000D03*
X109100000Y-78316667D03*
X109100000Y-79783333D03*
X107500000Y-76850000D03*
X107500000Y-78316667D03*
X107500000Y-79783333D03*
X109100000Y-81250000D03*
X107500000Y-81250000D03*
G04 #@! TD*
G04 #@! TO.C,REF\u002A\u002A*
X145100000Y-106050000D03*
X145100000Y-107516667D03*
X145100000Y-108983333D03*
X143500000Y-106050000D03*
X143500000Y-107516667D03*
X143500000Y-108983333D03*
X145100000Y-110450000D03*
X143500000Y-110450000D03*
G04 #@! TD*
G04 #@! TO.C,REF\u002A\u002A*
X127100000Y-106050000D03*
X127100000Y-107516667D03*
X127100000Y-108983333D03*
X125500000Y-106050000D03*
X125500000Y-107516667D03*
X125500000Y-108983333D03*
X127100000Y-110450000D03*
X125500000Y-110450000D03*
G04 #@! TD*
G04 #@! TO.C,REF\u002A\u002A*
X109100000Y-106050000D03*
X109100000Y-107516667D03*
X109100000Y-108983333D03*
X107500000Y-106050000D03*
X107500000Y-107516667D03*
X107500000Y-108983333D03*
X109100000Y-110450000D03*
X107500000Y-110450000D03*
G04 #@! TD*
G04 #@! TO.C,REF\u002A\u002A*
X91100000Y-106050000D03*
X91100000Y-107516667D03*
X91100000Y-108983333D03*
X89500000Y-106050000D03*
X89500000Y-107516667D03*
X89500000Y-108983333D03*
X91100000Y-110450000D03*
X89500000Y-110450000D03*
G04 #@! TD*
G04 #@! TO.C,REF\u002A\u002A*
X145100000Y-58550000D03*
X145100000Y-60016667D03*
X145100000Y-61483333D03*
X143500000Y-58550000D03*
X143500000Y-60016667D03*
X143500000Y-61483333D03*
X145100000Y-62950000D03*
X143500000Y-62950000D03*
G04 #@! TD*
G04 #@! TO.C,REF\u002A\u002A*
X109100000Y-58550000D03*
X109100000Y-60016667D03*
X109100000Y-61483333D03*
X107500000Y-58550000D03*
X107500000Y-60016667D03*
X107500000Y-61483333D03*
X109100000Y-62950000D03*
X107500000Y-62950000D03*
G04 #@! TD*
G04 #@! TO.C,REF\u002A\u002A*
X151100000Y-83750000D03*
X152566667Y-83750000D03*
X154033333Y-83750000D03*
X151100000Y-85350000D03*
X152566667Y-85350000D03*
X154033333Y-85350000D03*
X155500000Y-83750000D03*
X155500000Y-85350000D03*
G04 #@! TD*
G04 #@! TO.C,REF\u002A\u002A*
X133100000Y-83750000D03*
X134566667Y-83750000D03*
X136033333Y-83750000D03*
X133100000Y-85350000D03*
X134566667Y-85350000D03*
X136033333Y-85350000D03*
X137500000Y-83750000D03*
X137500000Y-85350000D03*
G04 #@! TD*
G04 #@! TO.C,REF\u002A\u002A*
X115100000Y-83750000D03*
X116566667Y-83750000D03*
X118033333Y-83750000D03*
X115100000Y-85350000D03*
X116566667Y-85350000D03*
X118033333Y-85350000D03*
X119500000Y-83750000D03*
X119500000Y-85350000D03*
G04 #@! TD*
G04 #@! TO.C,REF\u002A\u002A*
X163100000Y-87850000D03*
X163100000Y-89316667D03*
X163100000Y-90783333D03*
X161500000Y-87850000D03*
X161500000Y-89316667D03*
X161500000Y-90783333D03*
X163100000Y-92250000D03*
X161500000Y-92250000D03*
G04 #@! TD*
G04 #@! TO.C,REF\u002A\u002A*
X145100000Y-87850000D03*
X145100000Y-89316667D03*
X145100000Y-90783333D03*
X143500000Y-87850000D03*
X143500000Y-89316667D03*
X143500000Y-90783333D03*
X145100000Y-92250000D03*
X143500000Y-92250000D03*
G04 #@! TD*
G04 #@! TO.C,REF\u002A\u002A*
X127100000Y-87850000D03*
X127100000Y-89316667D03*
X127100000Y-90783333D03*
X125500000Y-87850000D03*
X125500000Y-89316667D03*
X125500000Y-90783333D03*
X127100000Y-92250000D03*
X125500000Y-92250000D03*
G04 #@! TD*
G04 #@! TO.C,REF\u002A\u002A*
X163100000Y-40350000D03*
X163100000Y-41816667D03*
X163100000Y-43283333D03*
X161500000Y-40350000D03*
X161500000Y-41816667D03*
X161500000Y-43283333D03*
X163100000Y-44750000D03*
X161500000Y-44750000D03*
G04 #@! TD*
G04 #@! TO.C,REF\u002A\u002A*
X145100000Y-40350000D03*
X145100000Y-41816667D03*
X145100000Y-43283333D03*
X143500000Y-40350000D03*
X143500000Y-41816667D03*
X143500000Y-43283333D03*
X145100000Y-44750000D03*
X143500000Y-44750000D03*
G04 #@! TD*
G04 #@! TO.C,REF\u002A\u002A*
X127100000Y-40350000D03*
X127100000Y-41816667D03*
X127100000Y-43283333D03*
X125500000Y-40350000D03*
X125500000Y-41816667D03*
X125500000Y-43283333D03*
X127100000Y-44750000D03*
X125500000Y-44750000D03*
G04 #@! TD*
G04 #@! TO.C,J1*
G36*
G01*
X149400000Y-92350000D02*
X147350000Y-92350000D01*
G75*
G02*
X147300000Y-92300000I0J50000D01*
G01*
X147300000Y-88300000D01*
G75*
G02*
X147350000Y-88250000I50000J0D01*
G01*
X149400000Y-88250000D01*
G75*
G02*
X149450000Y-88300000I0J-50000D01*
G01*
X149450000Y-92300000D01*
G75*
G02*
X149400000Y-92350000I-50000J0D01*
G01*
G37*
G36*
G01*
X159250000Y-92350000D02*
X157200000Y-92350000D01*
G75*
G02*
X157150000Y-92300000I0J50000D01*
G01*
X157150000Y-88300000D01*
G75*
G02*
X157200000Y-88250000I50000J0D01*
G01*
X159250000Y-88250000D01*
G75*
G02*
X159300000Y-88300000I0J-50000D01*
G01*
X159300000Y-92300000D01*
G75*
G02*
X159250000Y-92350000I-50000J0D01*
G01*
G37*
G36*
G01*
X149400000Y-96350000D02*
X147350000Y-96350000D01*
G75*
G02*
X147300000Y-96300000I0J50000D01*
G01*
X147300000Y-92800000D01*
G75*
G02*
X147350000Y-92750000I50000J0D01*
G01*
X149400000Y-92750000D01*
G75*
G02*
X149450000Y-92800000I0J-50000D01*
G01*
X149450000Y-96300000D01*
G75*
G02*
X149400000Y-96350000I-50000J0D01*
G01*
G37*
G36*
G01*
X159250000Y-96350000D02*
X157200000Y-96350000D01*
G75*
G02*
X157150000Y-96300000I0J50000D01*
G01*
X157150000Y-92800000D01*
G75*
G02*
X157200000Y-92750000I50000J0D01*
G01*
X159250000Y-92750000D01*
G75*
G02*
X159300000Y-92800000I0J-50000D01*
G01*
X159300000Y-96300000D01*
G75*
G02*
X159250000Y-96350000I-50000J0D01*
G01*
G37*
D11*
X155500000Y-92250000D03*
X151100000Y-92250000D03*
G36*
G01*
X151400000Y-95675000D02*
X151400000Y-93425000D01*
G75*
G02*
X151450000Y-93375000I50000J0D01*
G01*
X151950000Y-93375000D01*
G75*
G02*
X152000000Y-93425000I0J-50000D01*
G01*
X152000000Y-95675000D01*
G75*
G02*
X151950000Y-95725000I-50000J0D01*
G01*
X151450000Y-95725000D01*
G75*
G02*
X151400000Y-95675000I0J50000D01*
G01*
G37*
G36*
G01*
X152200000Y-95675000D02*
X152200000Y-93425000D01*
G75*
G02*
X152250000Y-93375000I50000J0D01*
G01*
X152750000Y-93375000D01*
G75*
G02*
X152800000Y-93425000I0J-50000D01*
G01*
X152800000Y-95675000D01*
G75*
G02*
X152750000Y-95725000I-50000J0D01*
G01*
X152250000Y-95725000D01*
G75*
G02*
X152200000Y-95675000I0J50000D01*
G01*
G37*
G36*
G01*
X153000000Y-95675000D02*
X153000000Y-93425000D01*
G75*
G02*
X153050000Y-93375000I50000J0D01*
G01*
X153550000Y-93375000D01*
G75*
G02*
X153600000Y-93425000I0J-50000D01*
G01*
X153600000Y-95675000D01*
G75*
G02*
X153550000Y-95725000I-50000J0D01*
G01*
X153050000Y-95725000D01*
G75*
G02*
X153000000Y-95675000I0J50000D01*
G01*
G37*
G36*
G01*
X153800000Y-95675000D02*
X153800000Y-93425000D01*
G75*
G02*
X153850000Y-93375000I50000J0D01*
G01*
X154350000Y-93375000D01*
G75*
G02*
X154400000Y-93425000I0J-50000D01*
G01*
X154400000Y-95675000D01*
G75*
G02*
X154350000Y-95725000I-50000J0D01*
G01*
X153850000Y-95725000D01*
G75*
G02*
X153800000Y-95675000I0J50000D01*
G01*
G37*
G36*
G01*
X154600000Y-95675000D02*
X154600000Y-93425000D01*
G75*
G02*
X154650000Y-93375000I50000J0D01*
G01*
X155150000Y-93375000D01*
G75*
G02*
X155200000Y-93425000I0J-50000D01*
G01*
X155200000Y-95675000D01*
G75*
G02*
X155150000Y-95725000I-50000J0D01*
G01*
X154650000Y-95725000D01*
G75*
G02*
X154600000Y-95675000I0J50000D01*
G01*
G37*
G04 #@! TD*
G04 #@! TO.C,J1*
G36*
G01*
X131400000Y-92350000D02*
X129350000Y-92350000D01*
G75*
G02*
X129300000Y-92300000I0J50000D01*
G01*
X129300000Y-88300000D01*
G75*
G02*
X129350000Y-88250000I50000J0D01*
G01*
X131400000Y-88250000D01*
G75*
G02*
X131450000Y-88300000I0J-50000D01*
G01*
X131450000Y-92300000D01*
G75*
G02*
X131400000Y-92350000I-50000J0D01*
G01*
G37*
G36*
G01*
X141250000Y-92350000D02*
X139200000Y-92350000D01*
G75*
G02*
X139150000Y-92300000I0J50000D01*
G01*
X139150000Y-88300000D01*
G75*
G02*
X139200000Y-88250000I50000J0D01*
G01*
X141250000Y-88250000D01*
G75*
G02*
X141300000Y-88300000I0J-50000D01*
G01*
X141300000Y-92300000D01*
G75*
G02*
X141250000Y-92350000I-50000J0D01*
G01*
G37*
G36*
G01*
X131400000Y-96350000D02*
X129350000Y-96350000D01*
G75*
G02*
X129300000Y-96300000I0J50000D01*
G01*
X129300000Y-92800000D01*
G75*
G02*
X129350000Y-92750000I50000J0D01*
G01*
X131400000Y-92750000D01*
G75*
G02*
X131450000Y-92800000I0J-50000D01*
G01*
X131450000Y-96300000D01*
G75*
G02*
X131400000Y-96350000I-50000J0D01*
G01*
G37*
G36*
G01*
X141250000Y-96350000D02*
X139200000Y-96350000D01*
G75*
G02*
X139150000Y-96300000I0J50000D01*
G01*
X139150000Y-92800000D01*
G75*
G02*
X139200000Y-92750000I50000J0D01*
G01*
X141250000Y-92750000D01*
G75*
G02*
X141300000Y-92800000I0J-50000D01*
G01*
X141300000Y-96300000D01*
G75*
G02*
X141250000Y-96350000I-50000J0D01*
G01*
G37*
X137500000Y-92250000D03*
X133100000Y-92250000D03*
G36*
G01*
X133400000Y-95675000D02*
X133400000Y-93425000D01*
G75*
G02*
X133450000Y-93375000I50000J0D01*
G01*
X133950000Y-93375000D01*
G75*
G02*
X134000000Y-93425000I0J-50000D01*
G01*
X134000000Y-95675000D01*
G75*
G02*
X133950000Y-95725000I-50000J0D01*
G01*
X133450000Y-95725000D01*
G75*
G02*
X133400000Y-95675000I0J50000D01*
G01*
G37*
G36*
G01*
X134200000Y-95675000D02*
X134200000Y-93425000D01*
G75*
G02*
X134250000Y-93375000I50000J0D01*
G01*
X134750000Y-93375000D01*
G75*
G02*
X134800000Y-93425000I0J-50000D01*
G01*
X134800000Y-95675000D01*
G75*
G02*
X134750000Y-95725000I-50000J0D01*
G01*
X134250000Y-95725000D01*
G75*
G02*
X134200000Y-95675000I0J50000D01*
G01*
G37*
G36*
G01*
X135000000Y-95675000D02*
X135000000Y-93425000D01*
G75*
G02*
X135050000Y-93375000I50000J0D01*
G01*
X135550000Y-93375000D01*
G75*
G02*
X135600000Y-93425000I0J-50000D01*
G01*
X135600000Y-95675000D01*
G75*
G02*
X135550000Y-95725000I-50000J0D01*
G01*
X135050000Y-95725000D01*
G75*
G02*
X135000000Y-95675000I0J50000D01*
G01*
G37*
G36*
G01*
X135800000Y-95675000D02*
X135800000Y-93425000D01*
G75*
G02*
X135850000Y-93375000I50000J0D01*
G01*
X136350000Y-93375000D01*
G75*
G02*
X136400000Y-93425000I0J-50000D01*
G01*
X136400000Y-95675000D01*
G75*
G02*
X136350000Y-95725000I-50000J0D01*
G01*
X135850000Y-95725000D01*
G75*
G02*
X135800000Y-95675000I0J50000D01*
G01*
G37*
G36*
G01*
X136600000Y-95675000D02*
X136600000Y-93425000D01*
G75*
G02*
X136650000Y-93375000I50000J0D01*
G01*
X137150000Y-93375000D01*
G75*
G02*
X137200000Y-93425000I0J-50000D01*
G01*
X137200000Y-95675000D01*
G75*
G02*
X137150000Y-95725000I-50000J0D01*
G01*
X136650000Y-95725000D01*
G75*
G02*
X136600000Y-95675000I0J50000D01*
G01*
G37*
G04 #@! TD*
G04 #@! TO.C,J1*
G36*
G01*
X113400000Y-92350000D02*
X111350000Y-92350000D01*
G75*
G02*
X111300000Y-92300000I0J50000D01*
G01*
X111300000Y-88300000D01*
G75*
G02*
X111350000Y-88250000I50000J0D01*
G01*
X113400000Y-88250000D01*
G75*
G02*
X113450000Y-88300000I0J-50000D01*
G01*
X113450000Y-92300000D01*
G75*
G02*
X113400000Y-92350000I-50000J0D01*
G01*
G37*
G36*
G01*
X123250000Y-92350000D02*
X121200000Y-92350000D01*
G75*
G02*
X121150000Y-92300000I0J50000D01*
G01*
X121150000Y-88300000D01*
G75*
G02*
X121200000Y-88250000I50000J0D01*
G01*
X123250000Y-88250000D01*
G75*
G02*
X123300000Y-88300000I0J-50000D01*
G01*
X123300000Y-92300000D01*
G75*
G02*
X123250000Y-92350000I-50000J0D01*
G01*
G37*
G36*
G01*
X113400000Y-96350000D02*
X111350000Y-96350000D01*
G75*
G02*
X111300000Y-96300000I0J50000D01*
G01*
X111300000Y-92800000D01*
G75*
G02*
X111350000Y-92750000I50000J0D01*
G01*
X113400000Y-92750000D01*
G75*
G02*
X113450000Y-92800000I0J-50000D01*
G01*
X113450000Y-96300000D01*
G75*
G02*
X113400000Y-96350000I-50000J0D01*
G01*
G37*
G36*
G01*
X123250000Y-96350000D02*
X121200000Y-96350000D01*
G75*
G02*
X121150000Y-96300000I0J50000D01*
G01*
X121150000Y-92800000D01*
G75*
G02*
X121200000Y-92750000I50000J0D01*
G01*
X123250000Y-92750000D01*
G75*
G02*
X123300000Y-92800000I0J-50000D01*
G01*
X123300000Y-96300000D01*
G75*
G02*
X123250000Y-96350000I-50000J0D01*
G01*
G37*
X119500000Y-92250000D03*
X115100000Y-92250000D03*
G36*
G01*
X115400000Y-95675000D02*
X115400000Y-93425000D01*
G75*
G02*
X115450000Y-93375000I50000J0D01*
G01*
X115950000Y-93375000D01*
G75*
G02*
X116000000Y-93425000I0J-50000D01*
G01*
X116000000Y-95675000D01*
G75*
G02*
X115950000Y-95725000I-50000J0D01*
G01*
X115450000Y-95725000D01*
G75*
G02*
X115400000Y-95675000I0J50000D01*
G01*
G37*
G36*
G01*
X116200000Y-95675000D02*
X116200000Y-93425000D01*
G75*
G02*
X116250000Y-93375000I50000J0D01*
G01*
X116750000Y-93375000D01*
G75*
G02*
X116800000Y-93425000I0J-50000D01*
G01*
X116800000Y-95675000D01*
G75*
G02*
X116750000Y-95725000I-50000J0D01*
G01*
X116250000Y-95725000D01*
G75*
G02*
X116200000Y-95675000I0J50000D01*
G01*
G37*
G36*
G01*
X117000000Y-95675000D02*
X117000000Y-93425000D01*
G75*
G02*
X117050000Y-93375000I50000J0D01*
G01*
X117550000Y-93375000D01*
G75*
G02*
X117600000Y-93425000I0J-50000D01*
G01*
X117600000Y-95675000D01*
G75*
G02*
X117550000Y-95725000I-50000J0D01*
G01*
X117050000Y-95725000D01*
G75*
G02*
X117000000Y-95675000I0J50000D01*
G01*
G37*
G36*
G01*
X117800000Y-95675000D02*
X117800000Y-93425000D01*
G75*
G02*
X117850000Y-93375000I50000J0D01*
G01*
X118350000Y-93375000D01*
G75*
G02*
X118400000Y-93425000I0J-50000D01*
G01*
X118400000Y-95675000D01*
G75*
G02*
X118350000Y-95725000I-50000J0D01*
G01*
X117850000Y-95725000D01*
G75*
G02*
X117800000Y-95675000I0J50000D01*
G01*
G37*
G36*
G01*
X118600000Y-95675000D02*
X118600000Y-93425000D01*
G75*
G02*
X118650000Y-93375000I50000J0D01*
G01*
X119150000Y-93375000D01*
G75*
G02*
X119200000Y-93425000I0J-50000D01*
G01*
X119200000Y-95675000D01*
G75*
G02*
X119150000Y-95725000I-50000J0D01*
G01*
X118650000Y-95725000D01*
G75*
G02*
X118600000Y-95675000I0J50000D01*
G01*
G37*
G04 #@! TD*
G04 #@! TO.C,J1*
G36*
G01*
X95400000Y-92350000D02*
X93350000Y-92350000D01*
G75*
G02*
X93300000Y-92300000I0J50000D01*
G01*
X93300000Y-88300000D01*
G75*
G02*
X93350000Y-88250000I50000J0D01*
G01*
X95400000Y-88250000D01*
G75*
G02*
X95450000Y-88300000I0J-50000D01*
G01*
X95450000Y-92300000D01*
G75*
G02*
X95400000Y-92350000I-50000J0D01*
G01*
G37*
G36*
G01*
X105250000Y-92350000D02*
X103200000Y-92350000D01*
G75*
G02*
X103150000Y-92300000I0J50000D01*
G01*
X103150000Y-88300000D01*
G75*
G02*
X103200000Y-88250000I50000J0D01*
G01*
X105250000Y-88250000D01*
G75*
G02*
X105300000Y-88300000I0J-50000D01*
G01*
X105300000Y-92300000D01*
G75*
G02*
X105250000Y-92350000I-50000J0D01*
G01*
G37*
G36*
G01*
X95400000Y-96350000D02*
X93350000Y-96350000D01*
G75*
G02*
X93300000Y-96300000I0J50000D01*
G01*
X93300000Y-92800000D01*
G75*
G02*
X93350000Y-92750000I50000J0D01*
G01*
X95400000Y-92750000D01*
G75*
G02*
X95450000Y-92800000I0J-50000D01*
G01*
X95450000Y-96300000D01*
G75*
G02*
X95400000Y-96350000I-50000J0D01*
G01*
G37*
G36*
G01*
X105250000Y-96350000D02*
X103200000Y-96350000D01*
G75*
G02*
X103150000Y-96300000I0J50000D01*
G01*
X103150000Y-92800000D01*
G75*
G02*
X103200000Y-92750000I50000J0D01*
G01*
X105250000Y-92750000D01*
G75*
G02*
X105300000Y-92800000I0J-50000D01*
G01*
X105300000Y-96300000D01*
G75*
G02*
X105250000Y-96350000I-50000J0D01*
G01*
G37*
X101500000Y-92250000D03*
X97100000Y-92250000D03*
G36*
G01*
X97400000Y-95675000D02*
X97400000Y-93425000D01*
G75*
G02*
X97450000Y-93375000I50000J0D01*
G01*
X97950000Y-93375000D01*
G75*
G02*
X98000000Y-93425000I0J-50000D01*
G01*
X98000000Y-95675000D01*
G75*
G02*
X97950000Y-95725000I-50000J0D01*
G01*
X97450000Y-95725000D01*
G75*
G02*
X97400000Y-95675000I0J50000D01*
G01*
G37*
G36*
G01*
X98200000Y-95675000D02*
X98200000Y-93425000D01*
G75*
G02*
X98250000Y-93375000I50000J0D01*
G01*
X98750000Y-93375000D01*
G75*
G02*
X98800000Y-93425000I0J-50000D01*
G01*
X98800000Y-95675000D01*
G75*
G02*
X98750000Y-95725000I-50000J0D01*
G01*
X98250000Y-95725000D01*
G75*
G02*
X98200000Y-95675000I0J50000D01*
G01*
G37*
G36*
G01*
X99000000Y-95675000D02*
X99000000Y-93425000D01*
G75*
G02*
X99050000Y-93375000I50000J0D01*
G01*
X99550000Y-93375000D01*
G75*
G02*
X99600000Y-93425000I0J-50000D01*
G01*
X99600000Y-95675000D01*
G75*
G02*
X99550000Y-95725000I-50000J0D01*
G01*
X99050000Y-95725000D01*
G75*
G02*
X99000000Y-95675000I0J50000D01*
G01*
G37*
G36*
G01*
X99800000Y-95675000D02*
X99800000Y-93425000D01*
G75*
G02*
X99850000Y-93375000I50000J0D01*
G01*
X100350000Y-93375000D01*
G75*
G02*
X100400000Y-93425000I0J-50000D01*
G01*
X100400000Y-95675000D01*
G75*
G02*
X100350000Y-95725000I-50000J0D01*
G01*
X99850000Y-95725000D01*
G75*
G02*
X99800000Y-95675000I0J50000D01*
G01*
G37*
G36*
G01*
X100600000Y-95675000D02*
X100600000Y-93425000D01*
G75*
G02*
X100650000Y-93375000I50000J0D01*
G01*
X101150000Y-93375000D01*
G75*
G02*
X101200000Y-93425000I0J-50000D01*
G01*
X101200000Y-95675000D01*
G75*
G02*
X101150000Y-95725000I-50000J0D01*
G01*
X100650000Y-95725000D01*
G75*
G02*
X100600000Y-95675000I0J50000D01*
G01*
G37*
G04 #@! TD*
G04 #@! TO.C,J1*
G36*
G01*
X131400000Y-44850000D02*
X129350000Y-44850000D01*
G75*
G02*
X129300000Y-44800000I0J50000D01*
G01*
X129300000Y-40800000D01*
G75*
G02*
X129350000Y-40750000I50000J0D01*
G01*
X131400000Y-40750000D01*
G75*
G02*
X131450000Y-40800000I0J-50000D01*
G01*
X131450000Y-44800000D01*
G75*
G02*
X131400000Y-44850000I-50000J0D01*
G01*
G37*
G36*
G01*
X141250000Y-44850000D02*
X139200000Y-44850000D01*
G75*
G02*
X139150000Y-44800000I0J50000D01*
G01*
X139150000Y-40800000D01*
G75*
G02*
X139200000Y-40750000I50000J0D01*
G01*
X141250000Y-40750000D01*
G75*
G02*
X141300000Y-40800000I0J-50000D01*
G01*
X141300000Y-44800000D01*
G75*
G02*
X141250000Y-44850000I-50000J0D01*
G01*
G37*
G36*
G01*
X131400000Y-48850000D02*
X129350000Y-48850000D01*
G75*
G02*
X129300000Y-48800000I0J50000D01*
G01*
X129300000Y-45300000D01*
G75*
G02*
X129350000Y-45250000I50000J0D01*
G01*
X131400000Y-45250000D01*
G75*
G02*
X131450000Y-45300000I0J-50000D01*
G01*
X131450000Y-48800000D01*
G75*
G02*
X131400000Y-48850000I-50000J0D01*
G01*
G37*
G36*
G01*
X141250000Y-48850000D02*
X139200000Y-48850000D01*
G75*
G02*
X139150000Y-48800000I0J50000D01*
G01*
X139150000Y-45300000D01*
G75*
G02*
X139200000Y-45250000I50000J0D01*
G01*
X141250000Y-45250000D01*
G75*
G02*
X141300000Y-45300000I0J-50000D01*
G01*
X141300000Y-48800000D01*
G75*
G02*
X141250000Y-48850000I-50000J0D01*
G01*
G37*
X137500000Y-44750000D03*
X133100000Y-44750000D03*
G36*
G01*
X133400000Y-48175000D02*
X133400000Y-45925000D01*
G75*
G02*
X133450000Y-45875000I50000J0D01*
G01*
X133950000Y-45875000D01*
G75*
G02*
X134000000Y-45925000I0J-50000D01*
G01*
X134000000Y-48175000D01*
G75*
G02*
X133950000Y-48225000I-50000J0D01*
G01*
X133450000Y-48225000D01*
G75*
G02*
X133400000Y-48175000I0J50000D01*
G01*
G37*
G36*
G01*
X134200000Y-48175000D02*
X134200000Y-45925000D01*
G75*
G02*
X134250000Y-45875000I50000J0D01*
G01*
X134750000Y-45875000D01*
G75*
G02*
X134800000Y-45925000I0J-50000D01*
G01*
X134800000Y-48175000D01*
G75*
G02*
X134750000Y-48225000I-50000J0D01*
G01*
X134250000Y-48225000D01*
G75*
G02*
X134200000Y-48175000I0J50000D01*
G01*
G37*
G36*
G01*
X135000000Y-48175000D02*
X135000000Y-45925000D01*
G75*
G02*
X135050000Y-45875000I50000J0D01*
G01*
X135550000Y-45875000D01*
G75*
G02*
X135600000Y-45925000I0J-50000D01*
G01*
X135600000Y-48175000D01*
G75*
G02*
X135550000Y-48225000I-50000J0D01*
G01*
X135050000Y-48225000D01*
G75*
G02*
X135000000Y-48175000I0J50000D01*
G01*
G37*
G36*
G01*
X135800000Y-48175000D02*
X135800000Y-45925000D01*
G75*
G02*
X135850000Y-45875000I50000J0D01*
G01*
X136350000Y-45875000D01*
G75*
G02*
X136400000Y-45925000I0J-50000D01*
G01*
X136400000Y-48175000D01*
G75*
G02*
X136350000Y-48225000I-50000J0D01*
G01*
X135850000Y-48225000D01*
G75*
G02*
X135800000Y-48175000I0J50000D01*
G01*
G37*
G36*
G01*
X136600000Y-48175000D02*
X136600000Y-45925000D01*
G75*
G02*
X136650000Y-45875000I50000J0D01*
G01*
X137150000Y-45875000D01*
G75*
G02*
X137200000Y-45925000I0J-50000D01*
G01*
X137200000Y-48175000D01*
G75*
G02*
X137150000Y-48225000I-50000J0D01*
G01*
X136650000Y-48225000D01*
G75*
G02*
X136600000Y-48175000I0J50000D01*
G01*
G37*
G04 #@! TD*
G04 #@! TO.C,J1*
G36*
G01*
X113400000Y-44850000D02*
X111350000Y-44850000D01*
G75*
G02*
X111300000Y-44800000I0J50000D01*
G01*
X111300000Y-40800000D01*
G75*
G02*
X111350000Y-40750000I50000J0D01*
G01*
X113400000Y-40750000D01*
G75*
G02*
X113450000Y-40800000I0J-50000D01*
G01*
X113450000Y-44800000D01*
G75*
G02*
X113400000Y-44850000I-50000J0D01*
G01*
G37*
G36*
G01*
X123250000Y-44850000D02*
X121200000Y-44850000D01*
G75*
G02*
X121150000Y-44800000I0J50000D01*
G01*
X121150000Y-40800000D01*
G75*
G02*
X121200000Y-40750000I50000J0D01*
G01*
X123250000Y-40750000D01*
G75*
G02*
X123300000Y-40800000I0J-50000D01*
G01*
X123300000Y-44800000D01*
G75*
G02*
X123250000Y-44850000I-50000J0D01*
G01*
G37*
G36*
G01*
X113400000Y-48850000D02*
X111350000Y-48850000D01*
G75*
G02*
X111300000Y-48800000I0J50000D01*
G01*
X111300000Y-45300000D01*
G75*
G02*
X111350000Y-45250000I50000J0D01*
G01*
X113400000Y-45250000D01*
G75*
G02*
X113450000Y-45300000I0J-50000D01*
G01*
X113450000Y-48800000D01*
G75*
G02*
X113400000Y-48850000I-50000J0D01*
G01*
G37*
G36*
G01*
X123250000Y-48850000D02*
X121200000Y-48850000D01*
G75*
G02*
X121150000Y-48800000I0J50000D01*
G01*
X121150000Y-45300000D01*
G75*
G02*
X121200000Y-45250000I50000J0D01*
G01*
X123250000Y-45250000D01*
G75*
G02*
X123300000Y-45300000I0J-50000D01*
G01*
X123300000Y-48800000D01*
G75*
G02*
X123250000Y-48850000I-50000J0D01*
G01*
G37*
X119500000Y-44750000D03*
X115100000Y-44750000D03*
G36*
G01*
X115400000Y-48175000D02*
X115400000Y-45925000D01*
G75*
G02*
X115450000Y-45875000I50000J0D01*
G01*
X115950000Y-45875000D01*
G75*
G02*
X116000000Y-45925000I0J-50000D01*
G01*
X116000000Y-48175000D01*
G75*
G02*
X115950000Y-48225000I-50000J0D01*
G01*
X115450000Y-48225000D01*
G75*
G02*
X115400000Y-48175000I0J50000D01*
G01*
G37*
G36*
G01*
X116200000Y-48175000D02*
X116200000Y-45925000D01*
G75*
G02*
X116250000Y-45875000I50000J0D01*
G01*
X116750000Y-45875000D01*
G75*
G02*
X116800000Y-45925000I0J-50000D01*
G01*
X116800000Y-48175000D01*
G75*
G02*
X116750000Y-48225000I-50000J0D01*
G01*
X116250000Y-48225000D01*
G75*
G02*
X116200000Y-48175000I0J50000D01*
G01*
G37*
G36*
G01*
X117000000Y-48175000D02*
X117000000Y-45925000D01*
G75*
G02*
X117050000Y-45875000I50000J0D01*
G01*
X117550000Y-45875000D01*
G75*
G02*
X117600000Y-45925000I0J-50000D01*
G01*
X117600000Y-48175000D01*
G75*
G02*
X117550000Y-48225000I-50000J0D01*
G01*
X117050000Y-48225000D01*
G75*
G02*
X117000000Y-48175000I0J50000D01*
G01*
G37*
G36*
G01*
X117800000Y-48175000D02*
X117800000Y-45925000D01*
G75*
G02*
X117850000Y-45875000I50000J0D01*
G01*
X118350000Y-45875000D01*
G75*
G02*
X118400000Y-45925000I0J-50000D01*
G01*
X118400000Y-48175000D01*
G75*
G02*
X118350000Y-48225000I-50000J0D01*
G01*
X117850000Y-48225000D01*
G75*
G02*
X117800000Y-48175000I0J50000D01*
G01*
G37*
G36*
G01*
X118600000Y-48175000D02*
X118600000Y-45925000D01*
G75*
G02*
X118650000Y-45875000I50000J0D01*
G01*
X119150000Y-45875000D01*
G75*
G02*
X119200000Y-45925000I0J-50000D01*
G01*
X119200000Y-48175000D01*
G75*
G02*
X119150000Y-48225000I-50000J0D01*
G01*
X118650000Y-48225000D01*
G75*
G02*
X118600000Y-48175000I0J50000D01*
G01*
G37*
G04 #@! TD*
G04 #@! TO.C,F1*
G36*
G01*
X158859375Y-99975000D02*
X156740625Y-99975000D01*
G75*
G02*
X156475000Y-99709375I0J265625D01*
G01*
X156475000Y-98540625D01*
G75*
G02*
X156740625Y-98275000I265625J0D01*
G01*
X158859375Y-98275000D01*
G75*
G02*
X159125000Y-98540625I0J-265625D01*
G01*
X159125000Y-99709375D01*
G75*
G02*
X158859375Y-99975000I-265625J0D01*
G01*
G37*
G36*
G01*
X158859375Y-102825000D02*
X156740625Y-102825000D01*
G75*
G02*
X156475000Y-102559375I0J265625D01*
G01*
X156475000Y-101390625D01*
G75*
G02*
X156740625Y-101125000I265625J0D01*
G01*
X158859375Y-101125000D01*
G75*
G02*
X159125000Y-101390625I0J-265625D01*
G01*
X159125000Y-102559375D01*
G75*
G02*
X158859375Y-102825000I-265625J0D01*
G01*
G37*
G04 #@! TD*
G04 #@! TO.C,F1*
G36*
G01*
X140859375Y-99975000D02*
X138740625Y-99975000D01*
G75*
G02*
X138475000Y-99709375I0J265625D01*
G01*
X138475000Y-98540625D01*
G75*
G02*
X138740625Y-98275000I265625J0D01*
G01*
X140859375Y-98275000D01*
G75*
G02*
X141125000Y-98540625I0J-265625D01*
G01*
X141125000Y-99709375D01*
G75*
G02*
X140859375Y-99975000I-265625J0D01*
G01*
G37*
G36*
G01*
X140859375Y-102825000D02*
X138740625Y-102825000D01*
G75*
G02*
X138475000Y-102559375I0J265625D01*
G01*
X138475000Y-101390625D01*
G75*
G02*
X138740625Y-101125000I265625J0D01*
G01*
X140859375Y-101125000D01*
G75*
G02*
X141125000Y-101390625I0J-265625D01*
G01*
X141125000Y-102559375D01*
G75*
G02*
X140859375Y-102825000I-265625J0D01*
G01*
G37*
G04 #@! TD*
G04 #@! TO.C,F1*
G36*
G01*
X122859375Y-99975000D02*
X120740625Y-99975000D01*
G75*
G02*
X120475000Y-99709375I0J265625D01*
G01*
X120475000Y-98540625D01*
G75*
G02*
X120740625Y-98275000I265625J0D01*
G01*
X122859375Y-98275000D01*
G75*
G02*
X123125000Y-98540625I0J-265625D01*
G01*
X123125000Y-99709375D01*
G75*
G02*
X122859375Y-99975000I-265625J0D01*
G01*
G37*
G36*
G01*
X122859375Y-102825000D02*
X120740625Y-102825000D01*
G75*
G02*
X120475000Y-102559375I0J265625D01*
G01*
X120475000Y-101390625D01*
G75*
G02*
X120740625Y-101125000I265625J0D01*
G01*
X122859375Y-101125000D01*
G75*
G02*
X123125000Y-101390625I0J-265625D01*
G01*
X123125000Y-102559375D01*
G75*
G02*
X122859375Y-102825000I-265625J0D01*
G01*
G37*
G04 #@! TD*
G04 #@! TO.C,F1*
G36*
G01*
X104859375Y-99975000D02*
X102740625Y-99975000D01*
G75*
G02*
X102475000Y-99709375I0J265625D01*
G01*
X102475000Y-98540625D01*
G75*
G02*
X102740625Y-98275000I265625J0D01*
G01*
X104859375Y-98275000D01*
G75*
G02*
X105125000Y-98540625I0J-265625D01*
G01*
X105125000Y-99709375D01*
G75*
G02*
X104859375Y-99975000I-265625J0D01*
G01*
G37*
G36*
G01*
X104859375Y-102825000D02*
X102740625Y-102825000D01*
G75*
G02*
X102475000Y-102559375I0J265625D01*
G01*
X102475000Y-101390625D01*
G75*
G02*
X102740625Y-101125000I265625J0D01*
G01*
X104859375Y-101125000D01*
G75*
G02*
X105125000Y-101390625I0J-265625D01*
G01*
X105125000Y-102559375D01*
G75*
G02*
X104859375Y-102825000I-265625J0D01*
G01*
G37*
G04 #@! TD*
G04 #@! TO.C,F1*
G36*
G01*
X158859375Y-52475000D02*
X156740625Y-52475000D01*
G75*
G02*
X156475000Y-52209375I0J265625D01*
G01*
X156475000Y-51040625D01*
G75*
G02*
X156740625Y-50775000I265625J0D01*
G01*
X158859375Y-50775000D01*
G75*
G02*
X159125000Y-51040625I0J-265625D01*
G01*
X159125000Y-52209375D01*
G75*
G02*
X158859375Y-52475000I-265625J0D01*
G01*
G37*
G36*
G01*
X158859375Y-55325000D02*
X156740625Y-55325000D01*
G75*
G02*
X156475000Y-55059375I0J265625D01*
G01*
X156475000Y-53890625D01*
G75*
G02*
X156740625Y-53625000I265625J0D01*
G01*
X158859375Y-53625000D01*
G75*
G02*
X159125000Y-53890625I0J-265625D01*
G01*
X159125000Y-55059375D01*
G75*
G02*
X158859375Y-55325000I-265625J0D01*
G01*
G37*
G04 #@! TD*
G04 #@! TO.C,F1*
G36*
G01*
X140859375Y-52475000D02*
X138740625Y-52475000D01*
G75*
G02*
X138475000Y-52209375I0J265625D01*
G01*
X138475000Y-51040625D01*
G75*
G02*
X138740625Y-50775000I265625J0D01*
G01*
X140859375Y-50775000D01*
G75*
G02*
X141125000Y-51040625I0J-265625D01*
G01*
X141125000Y-52209375D01*
G75*
G02*
X140859375Y-52475000I-265625J0D01*
G01*
G37*
G36*
G01*
X140859375Y-55325000D02*
X138740625Y-55325000D01*
G75*
G02*
X138475000Y-55059375I0J265625D01*
G01*
X138475000Y-53890625D01*
G75*
G02*
X138740625Y-53625000I265625J0D01*
G01*
X140859375Y-53625000D01*
G75*
G02*
X141125000Y-53890625I0J-265625D01*
G01*
X141125000Y-55059375D01*
G75*
G02*
X140859375Y-55325000I-265625J0D01*
G01*
G37*
G04 #@! TD*
G04 #@! TO.C,F1*
G36*
G01*
X122859375Y-52475000D02*
X120740625Y-52475000D01*
G75*
G02*
X120475000Y-52209375I0J265625D01*
G01*
X120475000Y-51040625D01*
G75*
G02*
X120740625Y-50775000I265625J0D01*
G01*
X122859375Y-50775000D01*
G75*
G02*
X123125000Y-51040625I0J-265625D01*
G01*
X123125000Y-52209375D01*
G75*
G02*
X122859375Y-52475000I-265625J0D01*
G01*
G37*
G36*
G01*
X122859375Y-55325000D02*
X120740625Y-55325000D01*
G75*
G02*
X120475000Y-55059375I0J265625D01*
G01*
X120475000Y-53890625D01*
G75*
G02*
X120740625Y-53625000I265625J0D01*
G01*
X122859375Y-53625000D01*
G75*
G02*
X123125000Y-53890625I0J-265625D01*
G01*
X123125000Y-55059375D01*
G75*
G02*
X122859375Y-55325000I-265625J0D01*
G01*
G37*
G04 #@! TD*
D13*
G04 #@! TO.C,H1*
X151247056Y-121602944D03*
X149550000Y-120900000D03*
X147852944Y-121602944D03*
X147150000Y-123300000D03*
X147852944Y-124997056D03*
X149550000Y-125700000D03*
X151247056Y-124997056D03*
X151950000Y-123300000D03*
D14*
X149550000Y-123300000D03*
G04 #@! TD*
D13*
G04 #@! TO.C,H1*
X133247056Y-121602944D03*
X131550000Y-120900000D03*
X129852944Y-121602944D03*
X129150000Y-123300000D03*
X129852944Y-124997056D03*
X131550000Y-125700000D03*
X133247056Y-124997056D03*
X133950000Y-123300000D03*
D14*
X131550000Y-123300000D03*
G04 #@! TD*
D13*
G04 #@! TO.C,H1*
X115247056Y-121602944D03*
X113550000Y-120900000D03*
X111852944Y-121602944D03*
X111150000Y-123300000D03*
X111852944Y-124997056D03*
X113550000Y-125700000D03*
X115247056Y-124997056D03*
X115950000Y-123300000D03*
D14*
X113550000Y-123300000D03*
G04 #@! TD*
D13*
G04 #@! TO.C,H1*
X97247056Y-121602944D03*
X95550000Y-120900000D03*
X93852944Y-121602944D03*
X93150000Y-123300000D03*
X93852944Y-124997056D03*
X95550000Y-125700000D03*
X97247056Y-124997056D03*
X97950000Y-123300000D03*
D14*
X95550000Y-123300000D03*
G04 #@! TD*
D13*
G04 #@! TO.C,H1*
X151247056Y-74102944D03*
X149550000Y-73400000D03*
X147852944Y-74102944D03*
X147150000Y-75800000D03*
X147852944Y-77497056D03*
X149550000Y-78200000D03*
X151247056Y-77497056D03*
X151950000Y-75800000D03*
D14*
X149550000Y-75800000D03*
G04 #@! TD*
D13*
G04 #@! TO.C,H1*
X133247056Y-74102944D03*
X131550000Y-73400000D03*
X129852944Y-74102944D03*
X129150000Y-75800000D03*
X129852944Y-77497056D03*
X131550000Y-78200000D03*
X133247056Y-77497056D03*
X133950000Y-75800000D03*
D14*
X131550000Y-75800000D03*
G04 #@! TD*
D13*
G04 #@! TO.C,H1*
X115247056Y-74102944D03*
X113550000Y-73400000D03*
X111852944Y-74102944D03*
X111150000Y-75800000D03*
X111852944Y-77497056D03*
X113550000Y-78200000D03*
X115247056Y-77497056D03*
X115950000Y-75800000D03*
D14*
X113550000Y-75800000D03*
G04 #@! TD*
D15*
G04 #@! TO.C,J2*
X150960000Y-114040000D03*
X153500000Y-114040000D03*
X150960000Y-111500000D03*
X153500000Y-111500000D03*
X150960000Y-108960000D03*
X153500000Y-108960000D03*
X150960000Y-106420000D03*
X153500000Y-106420000D03*
X150960000Y-103880000D03*
X153500000Y-103880000D03*
X150960000Y-101340000D03*
G36*
G01*
X152600000Y-102190000D02*
X152600000Y-100490000D01*
G75*
G02*
X152650000Y-100440000I50000J0D01*
G01*
X154350000Y-100440000D01*
G75*
G02*
X154400000Y-100490000I0J-50000D01*
G01*
X154400000Y-102190000D01*
G75*
G02*
X154350000Y-102240000I-50000J0D01*
G01*
X152650000Y-102240000D01*
G75*
G02*
X152600000Y-102190000I0J50000D01*
G01*
G37*
G04 #@! TD*
G04 #@! TO.C,J2*
X132960000Y-114040000D03*
X135500000Y-114040000D03*
X132960000Y-111500000D03*
X135500000Y-111500000D03*
X132960000Y-108960000D03*
X135500000Y-108960000D03*
X132960000Y-106420000D03*
X135500000Y-106420000D03*
X132960000Y-103880000D03*
X135500000Y-103880000D03*
X132960000Y-101340000D03*
G36*
G01*
X134600000Y-102190000D02*
X134600000Y-100490000D01*
G75*
G02*
X134650000Y-100440000I50000J0D01*
G01*
X136350000Y-100440000D01*
G75*
G02*
X136400000Y-100490000I0J-50000D01*
G01*
X136400000Y-102190000D01*
G75*
G02*
X136350000Y-102240000I-50000J0D01*
G01*
X134650000Y-102240000D01*
G75*
G02*
X134600000Y-102190000I0J50000D01*
G01*
G37*
G04 #@! TD*
G04 #@! TO.C,J2*
X114960000Y-114040000D03*
X117500000Y-114040000D03*
X114960000Y-111500000D03*
X117500000Y-111500000D03*
X114960000Y-108960000D03*
X117500000Y-108960000D03*
X114960000Y-106420000D03*
X117500000Y-106420000D03*
X114960000Y-103880000D03*
X117500000Y-103880000D03*
X114960000Y-101340000D03*
G36*
G01*
X116600000Y-102190000D02*
X116600000Y-100490000D01*
G75*
G02*
X116650000Y-100440000I50000J0D01*
G01*
X118350000Y-100440000D01*
G75*
G02*
X118400000Y-100490000I0J-50000D01*
G01*
X118400000Y-102190000D01*
G75*
G02*
X118350000Y-102240000I-50000J0D01*
G01*
X116650000Y-102240000D01*
G75*
G02*
X116600000Y-102190000I0J50000D01*
G01*
G37*
G04 #@! TD*
G04 #@! TO.C,J2*
X96960000Y-114040000D03*
X99500000Y-114040000D03*
X96960000Y-111500000D03*
X99500000Y-111500000D03*
X96960000Y-108960000D03*
X99500000Y-108960000D03*
X96960000Y-106420000D03*
X99500000Y-106420000D03*
X96960000Y-103880000D03*
X99500000Y-103880000D03*
X96960000Y-101340000D03*
G36*
G01*
X98600000Y-102190000D02*
X98600000Y-100490000D01*
G75*
G02*
X98650000Y-100440000I50000J0D01*
G01*
X100350000Y-100440000D01*
G75*
G02*
X100400000Y-100490000I0J-50000D01*
G01*
X100400000Y-102190000D01*
G75*
G02*
X100350000Y-102240000I-50000J0D01*
G01*
X98650000Y-102240000D01*
G75*
G02*
X98600000Y-102190000I0J50000D01*
G01*
G37*
G04 #@! TD*
G04 #@! TO.C,J2*
X150960000Y-66540000D03*
X153500000Y-66540000D03*
X150960000Y-64000000D03*
X153500000Y-64000000D03*
X150960000Y-61460000D03*
X153500000Y-61460000D03*
X150960000Y-58920000D03*
X153500000Y-58920000D03*
X150960000Y-56380000D03*
X153500000Y-56380000D03*
X150960000Y-53840000D03*
G36*
G01*
X152600000Y-54690000D02*
X152600000Y-52990000D01*
G75*
G02*
X152650000Y-52940000I50000J0D01*
G01*
X154350000Y-52940000D01*
G75*
G02*
X154400000Y-52990000I0J-50000D01*
G01*
X154400000Y-54690000D01*
G75*
G02*
X154350000Y-54740000I-50000J0D01*
G01*
X152650000Y-54740000D01*
G75*
G02*
X152600000Y-54690000I0J50000D01*
G01*
G37*
G04 #@! TD*
G04 #@! TO.C,J2*
X132960000Y-66540000D03*
X135500000Y-66540000D03*
X132960000Y-64000000D03*
X135500000Y-64000000D03*
X132960000Y-61460000D03*
X135500000Y-61460000D03*
X132960000Y-58920000D03*
X135500000Y-58920000D03*
X132960000Y-56380000D03*
X135500000Y-56380000D03*
X132960000Y-53840000D03*
G36*
G01*
X134600000Y-54690000D02*
X134600000Y-52990000D01*
G75*
G02*
X134650000Y-52940000I50000J0D01*
G01*
X136350000Y-52940000D01*
G75*
G02*
X136400000Y-52990000I0J-50000D01*
G01*
X136400000Y-54690000D01*
G75*
G02*
X136350000Y-54740000I-50000J0D01*
G01*
X134650000Y-54740000D01*
G75*
G02*
X134600000Y-54690000I0J50000D01*
G01*
G37*
G04 #@! TD*
G04 #@! TO.C,J2*
X114960000Y-66540000D03*
X117500000Y-66540000D03*
X114960000Y-64000000D03*
X117500000Y-64000000D03*
X114960000Y-61460000D03*
X117500000Y-61460000D03*
X114960000Y-58920000D03*
X117500000Y-58920000D03*
X114960000Y-56380000D03*
X117500000Y-56380000D03*
X114960000Y-53840000D03*
G36*
G01*
X116600000Y-54690000D02*
X116600000Y-52990000D01*
G75*
G02*
X116650000Y-52940000I50000J0D01*
G01*
X118350000Y-52940000D01*
G75*
G02*
X118400000Y-52990000I0J-50000D01*
G01*
X118400000Y-54690000D01*
G75*
G02*
X118350000Y-54740000I-50000J0D01*
G01*
X116650000Y-54740000D01*
G75*
G02*
X116600000Y-54690000I0J50000D01*
G01*
G37*
G04 #@! TD*
G04 #@! TO.C,D1*
G36*
G01*
X158150000Y-104025000D02*
X158150000Y-104475000D01*
G75*
G02*
X158100000Y-104525000I-50000J0D01*
G01*
X157500000Y-104525000D01*
G75*
G02*
X157450000Y-104475000I0J50000D01*
G01*
X157450000Y-104025000D01*
G75*
G02*
X157500000Y-103975000I50000J0D01*
G01*
X158100000Y-103975000D01*
G75*
G02*
X158150000Y-104025000I0J-50000D01*
G01*
G37*
G36*
G01*
X160250000Y-104025000D02*
X160250000Y-104475000D01*
G75*
G02*
X160200000Y-104525000I-50000J0D01*
G01*
X159600000Y-104525000D01*
G75*
G02*
X159550000Y-104475000I0J50000D01*
G01*
X159550000Y-104025000D01*
G75*
G02*
X159600000Y-103975000I50000J0D01*
G01*
X160200000Y-103975000D01*
G75*
G02*
X160250000Y-104025000I0J-50000D01*
G01*
G37*
G04 #@! TD*
G04 #@! TO.C,D1*
G36*
G01*
X140150000Y-104025000D02*
X140150000Y-104475000D01*
G75*
G02*
X140100000Y-104525000I-50000J0D01*
G01*
X139500000Y-104525000D01*
G75*
G02*
X139450000Y-104475000I0J50000D01*
G01*
X139450000Y-104025000D01*
G75*
G02*
X139500000Y-103975000I50000J0D01*
G01*
X140100000Y-103975000D01*
G75*
G02*
X140150000Y-104025000I0J-50000D01*
G01*
G37*
G36*
G01*
X142250000Y-104025000D02*
X142250000Y-104475000D01*
G75*
G02*
X142200000Y-104525000I-50000J0D01*
G01*
X141600000Y-104525000D01*
G75*
G02*
X141550000Y-104475000I0J50000D01*
G01*
X141550000Y-104025000D01*
G75*
G02*
X141600000Y-103975000I50000J0D01*
G01*
X142200000Y-103975000D01*
G75*
G02*
X142250000Y-104025000I0J-50000D01*
G01*
G37*
G04 #@! TD*
G04 #@! TO.C,D1*
G36*
G01*
X122150000Y-104025000D02*
X122150000Y-104475000D01*
G75*
G02*
X122100000Y-104525000I-50000J0D01*
G01*
X121500000Y-104525000D01*
G75*
G02*
X121450000Y-104475000I0J50000D01*
G01*
X121450000Y-104025000D01*
G75*
G02*
X121500000Y-103975000I50000J0D01*
G01*
X122100000Y-103975000D01*
G75*
G02*
X122150000Y-104025000I0J-50000D01*
G01*
G37*
G36*
G01*
X124250000Y-104025000D02*
X124250000Y-104475000D01*
G75*
G02*
X124200000Y-104525000I-50000J0D01*
G01*
X123600000Y-104525000D01*
G75*
G02*
X123550000Y-104475000I0J50000D01*
G01*
X123550000Y-104025000D01*
G75*
G02*
X123600000Y-103975000I50000J0D01*
G01*
X124200000Y-103975000D01*
G75*
G02*
X124250000Y-104025000I0J-50000D01*
G01*
G37*
G04 #@! TD*
G04 #@! TO.C,D1*
G36*
G01*
X104150000Y-104025000D02*
X104150000Y-104475000D01*
G75*
G02*
X104100000Y-104525000I-50000J0D01*
G01*
X103500000Y-104525000D01*
G75*
G02*
X103450000Y-104475000I0J50000D01*
G01*
X103450000Y-104025000D01*
G75*
G02*
X103500000Y-103975000I50000J0D01*
G01*
X104100000Y-103975000D01*
G75*
G02*
X104150000Y-104025000I0J-50000D01*
G01*
G37*
G36*
G01*
X106250000Y-104025000D02*
X106250000Y-104475000D01*
G75*
G02*
X106200000Y-104525000I-50000J0D01*
G01*
X105600000Y-104525000D01*
G75*
G02*
X105550000Y-104475000I0J50000D01*
G01*
X105550000Y-104025000D01*
G75*
G02*
X105600000Y-103975000I50000J0D01*
G01*
X106200000Y-103975000D01*
G75*
G02*
X106250000Y-104025000I0J-50000D01*
G01*
G37*
G04 #@! TD*
G04 #@! TO.C,D1*
G36*
G01*
X158150000Y-56525000D02*
X158150000Y-56975000D01*
G75*
G02*
X158100000Y-57025000I-50000J0D01*
G01*
X157500000Y-57025000D01*
G75*
G02*
X157450000Y-56975000I0J50000D01*
G01*
X157450000Y-56525000D01*
G75*
G02*
X157500000Y-56475000I50000J0D01*
G01*
X158100000Y-56475000D01*
G75*
G02*
X158150000Y-56525000I0J-50000D01*
G01*
G37*
G36*
G01*
X160250000Y-56525000D02*
X160250000Y-56975000D01*
G75*
G02*
X160200000Y-57025000I-50000J0D01*
G01*
X159600000Y-57025000D01*
G75*
G02*
X159550000Y-56975000I0J50000D01*
G01*
X159550000Y-56525000D01*
G75*
G02*
X159600000Y-56475000I50000J0D01*
G01*
X160200000Y-56475000D01*
G75*
G02*
X160250000Y-56525000I0J-50000D01*
G01*
G37*
G04 #@! TD*
G04 #@! TO.C,D1*
G36*
G01*
X140150000Y-56525000D02*
X140150000Y-56975000D01*
G75*
G02*
X140100000Y-57025000I-50000J0D01*
G01*
X139500000Y-57025000D01*
G75*
G02*
X139450000Y-56975000I0J50000D01*
G01*
X139450000Y-56525000D01*
G75*
G02*
X139500000Y-56475000I50000J0D01*
G01*
X140100000Y-56475000D01*
G75*
G02*
X140150000Y-56525000I0J-50000D01*
G01*
G37*
G36*
G01*
X142250000Y-56525000D02*
X142250000Y-56975000D01*
G75*
G02*
X142200000Y-57025000I-50000J0D01*
G01*
X141600000Y-57025000D01*
G75*
G02*
X141550000Y-56975000I0J50000D01*
G01*
X141550000Y-56525000D01*
G75*
G02*
X141600000Y-56475000I50000J0D01*
G01*
X142200000Y-56475000D01*
G75*
G02*
X142250000Y-56525000I0J-50000D01*
G01*
G37*
G04 #@! TD*
G04 #@! TO.C,D1*
G36*
G01*
X122150000Y-56525000D02*
X122150000Y-56975000D01*
G75*
G02*
X122100000Y-57025000I-50000J0D01*
G01*
X121500000Y-57025000D01*
G75*
G02*
X121450000Y-56975000I0J50000D01*
G01*
X121450000Y-56525000D01*
G75*
G02*
X121500000Y-56475000I50000J0D01*
G01*
X122100000Y-56475000D01*
G75*
G02*
X122150000Y-56525000I0J-50000D01*
G01*
G37*
G36*
G01*
X124250000Y-56525000D02*
X124250000Y-56975000D01*
G75*
G02*
X124200000Y-57025000I-50000J0D01*
G01*
X123600000Y-57025000D01*
G75*
G02*
X123550000Y-56975000I0J50000D01*
G01*
X123550000Y-56525000D01*
G75*
G02*
X123600000Y-56475000I50000J0D01*
G01*
X124200000Y-56475000D01*
G75*
G02*
X124250000Y-56525000I0J-50000D01*
G01*
G37*
G04 #@! TD*
G04 #@! TO.C,R1*
G36*
G01*
X150100000Y-97831250D02*
X150100000Y-97268750D01*
G75*
G02*
X150343750Y-97025000I243750J0D01*
G01*
X150831250Y-97025000D01*
G75*
G02*
X151075000Y-97268750I0J-243750D01*
G01*
X151075000Y-97831250D01*
G75*
G02*
X150831250Y-98075000I-243750J0D01*
G01*
X150343750Y-98075000D01*
G75*
G02*
X150100000Y-97831250I0J243750D01*
G01*
G37*
G36*
G01*
X148525000Y-97831250D02*
X148525000Y-97268750D01*
G75*
G02*
X148768750Y-97025000I243750J0D01*
G01*
X149256250Y-97025000D01*
G75*
G02*
X149500000Y-97268750I0J-243750D01*
G01*
X149500000Y-97831250D01*
G75*
G02*
X149256250Y-98075000I-243750J0D01*
G01*
X148768750Y-98075000D01*
G75*
G02*
X148525000Y-97831250I0J243750D01*
G01*
G37*
G04 #@! TD*
G04 #@! TO.C,R1*
G36*
G01*
X132100000Y-97831250D02*
X132100000Y-97268750D01*
G75*
G02*
X132343750Y-97025000I243750J0D01*
G01*
X132831250Y-97025000D01*
G75*
G02*
X133075000Y-97268750I0J-243750D01*
G01*
X133075000Y-97831250D01*
G75*
G02*
X132831250Y-98075000I-243750J0D01*
G01*
X132343750Y-98075000D01*
G75*
G02*
X132100000Y-97831250I0J243750D01*
G01*
G37*
G36*
G01*
X130525000Y-97831250D02*
X130525000Y-97268750D01*
G75*
G02*
X130768750Y-97025000I243750J0D01*
G01*
X131256250Y-97025000D01*
G75*
G02*
X131500000Y-97268750I0J-243750D01*
G01*
X131500000Y-97831250D01*
G75*
G02*
X131256250Y-98075000I-243750J0D01*
G01*
X130768750Y-98075000D01*
G75*
G02*
X130525000Y-97831250I0J243750D01*
G01*
G37*
G04 #@! TD*
G04 #@! TO.C,R1*
G36*
G01*
X114100000Y-97831250D02*
X114100000Y-97268750D01*
G75*
G02*
X114343750Y-97025000I243750J0D01*
G01*
X114831250Y-97025000D01*
G75*
G02*
X115075000Y-97268750I0J-243750D01*
G01*
X115075000Y-97831250D01*
G75*
G02*
X114831250Y-98075000I-243750J0D01*
G01*
X114343750Y-98075000D01*
G75*
G02*
X114100000Y-97831250I0J243750D01*
G01*
G37*
G36*
G01*
X112525000Y-97831250D02*
X112525000Y-97268750D01*
G75*
G02*
X112768750Y-97025000I243750J0D01*
G01*
X113256250Y-97025000D01*
G75*
G02*
X113500000Y-97268750I0J-243750D01*
G01*
X113500000Y-97831250D01*
G75*
G02*
X113256250Y-98075000I-243750J0D01*
G01*
X112768750Y-98075000D01*
G75*
G02*
X112525000Y-97831250I0J243750D01*
G01*
G37*
G04 #@! TD*
G04 #@! TO.C,R1*
G36*
G01*
X96100000Y-97831250D02*
X96100000Y-97268750D01*
G75*
G02*
X96343750Y-97025000I243750J0D01*
G01*
X96831250Y-97025000D01*
G75*
G02*
X97075000Y-97268750I0J-243750D01*
G01*
X97075000Y-97831250D01*
G75*
G02*
X96831250Y-98075000I-243750J0D01*
G01*
X96343750Y-98075000D01*
G75*
G02*
X96100000Y-97831250I0J243750D01*
G01*
G37*
G36*
G01*
X94525000Y-97831250D02*
X94525000Y-97268750D01*
G75*
G02*
X94768750Y-97025000I243750J0D01*
G01*
X95256250Y-97025000D01*
G75*
G02*
X95500000Y-97268750I0J-243750D01*
G01*
X95500000Y-97831250D01*
G75*
G02*
X95256250Y-98075000I-243750J0D01*
G01*
X94768750Y-98075000D01*
G75*
G02*
X94525000Y-97831250I0J243750D01*
G01*
G37*
G04 #@! TD*
G04 #@! TO.C,R1*
G36*
G01*
X150100000Y-50331250D02*
X150100000Y-49768750D01*
G75*
G02*
X150343750Y-49525000I243750J0D01*
G01*
X150831250Y-49525000D01*
G75*
G02*
X151075000Y-49768750I0J-243750D01*
G01*
X151075000Y-50331250D01*
G75*
G02*
X150831250Y-50575000I-243750J0D01*
G01*
X150343750Y-50575000D01*
G75*
G02*
X150100000Y-50331250I0J243750D01*
G01*
G37*
G36*
G01*
X148525000Y-50331250D02*
X148525000Y-49768750D01*
G75*
G02*
X148768750Y-49525000I243750J0D01*
G01*
X149256250Y-49525000D01*
G75*
G02*
X149500000Y-49768750I0J-243750D01*
G01*
X149500000Y-50331250D01*
G75*
G02*
X149256250Y-50575000I-243750J0D01*
G01*
X148768750Y-50575000D01*
G75*
G02*
X148525000Y-50331250I0J243750D01*
G01*
G37*
G04 #@! TD*
G04 #@! TO.C,R1*
G36*
G01*
X132100000Y-50331250D02*
X132100000Y-49768750D01*
G75*
G02*
X132343750Y-49525000I243750J0D01*
G01*
X132831250Y-49525000D01*
G75*
G02*
X133075000Y-49768750I0J-243750D01*
G01*
X133075000Y-50331250D01*
G75*
G02*
X132831250Y-50575000I-243750J0D01*
G01*
X132343750Y-50575000D01*
G75*
G02*
X132100000Y-50331250I0J243750D01*
G01*
G37*
G36*
G01*
X130525000Y-50331250D02*
X130525000Y-49768750D01*
G75*
G02*
X130768750Y-49525000I243750J0D01*
G01*
X131256250Y-49525000D01*
G75*
G02*
X131500000Y-49768750I0J-243750D01*
G01*
X131500000Y-50331250D01*
G75*
G02*
X131256250Y-50575000I-243750J0D01*
G01*
X130768750Y-50575000D01*
G75*
G02*
X130525000Y-50331250I0J243750D01*
G01*
G37*
G04 #@! TD*
G04 #@! TO.C,R1*
G36*
G01*
X114100000Y-50331250D02*
X114100000Y-49768750D01*
G75*
G02*
X114343750Y-49525000I243750J0D01*
G01*
X114831250Y-49525000D01*
G75*
G02*
X115075000Y-49768750I0J-243750D01*
G01*
X115075000Y-50331250D01*
G75*
G02*
X114831250Y-50575000I-243750J0D01*
G01*
X114343750Y-50575000D01*
G75*
G02*
X114100000Y-50331250I0J243750D01*
G01*
G37*
G36*
G01*
X112525000Y-50331250D02*
X112525000Y-49768750D01*
G75*
G02*
X112768750Y-49525000I243750J0D01*
G01*
X113256250Y-49525000D01*
G75*
G02*
X113500000Y-49768750I0J-243750D01*
G01*
X113500000Y-50331250D01*
G75*
G02*
X113256250Y-50575000I-243750J0D01*
G01*
X112768750Y-50575000D01*
G75*
G02*
X112525000Y-50331250I0J243750D01*
G01*
G37*
G04 #@! TD*
D12*
G04 #@! TO.C,REF\u002A\u002A*
X91100000Y-58550000D03*
X91100000Y-60016667D03*
X91100000Y-61483333D03*
X89500000Y-58550000D03*
X89500000Y-60016667D03*
X89500000Y-61483333D03*
X91100000Y-62950000D03*
X89500000Y-62950000D03*
G04 #@! TD*
G04 #@! TO.C,REF\u002A\u002A*
X91100000Y-76850000D03*
X91100000Y-78316667D03*
X91100000Y-79783333D03*
X89500000Y-76850000D03*
X89500000Y-78316667D03*
X89500000Y-79783333D03*
X91100000Y-81250000D03*
X89500000Y-81250000D03*
G04 #@! TD*
G04 #@! TO.C,REF\u002A\u002A*
X91100000Y-40350000D03*
X91100000Y-41816667D03*
X91100000Y-43283333D03*
X89500000Y-40350000D03*
X89500000Y-41816667D03*
X89500000Y-43283333D03*
X91100000Y-44750000D03*
X89500000Y-44750000D03*
G04 #@! TD*
G04 #@! TO.C,REF\u002A\u002A*
X97100000Y-83750000D03*
X98566667Y-83750000D03*
X100033333Y-83750000D03*
X97100000Y-85350000D03*
X98566667Y-85350000D03*
X100033333Y-85350000D03*
X101500000Y-83750000D03*
X101500000Y-85350000D03*
G04 #@! TD*
G04 #@! TO.C,REF\u002A\u002A*
X109100000Y-40350000D03*
X109100000Y-41816667D03*
X109100000Y-43283333D03*
X107500000Y-40350000D03*
X107500000Y-41816667D03*
X107500000Y-43283333D03*
X109100000Y-44750000D03*
X107500000Y-44750000D03*
G04 #@! TD*
G04 #@! TO.C,D1*
G36*
G01*
X104150000Y-56525000D02*
X104150000Y-56975000D01*
G75*
G02*
X104100000Y-57025000I-50000J0D01*
G01*
X103500000Y-57025000D01*
G75*
G02*
X103450000Y-56975000I0J50000D01*
G01*
X103450000Y-56525000D01*
G75*
G02*
X103500000Y-56475000I50000J0D01*
G01*
X104100000Y-56475000D01*
G75*
G02*
X104150000Y-56525000I0J-50000D01*
G01*
G37*
G36*
G01*
X106250000Y-56525000D02*
X106250000Y-56975000D01*
G75*
G02*
X106200000Y-57025000I-50000J0D01*
G01*
X105600000Y-57025000D01*
G75*
G02*
X105550000Y-56975000I0J50000D01*
G01*
X105550000Y-56525000D01*
G75*
G02*
X105600000Y-56475000I50000J0D01*
G01*
X106200000Y-56475000D01*
G75*
G02*
X106250000Y-56525000I0J-50000D01*
G01*
G37*
G04 #@! TD*
G04 #@! TO.C,R1*
G36*
G01*
X96100000Y-50331250D02*
X96100000Y-49768750D01*
G75*
G02*
X96343750Y-49525000I243750J0D01*
G01*
X96831250Y-49525000D01*
G75*
G02*
X97075000Y-49768750I0J-243750D01*
G01*
X97075000Y-50331250D01*
G75*
G02*
X96831250Y-50575000I-243750J0D01*
G01*
X96343750Y-50575000D01*
G75*
G02*
X96100000Y-50331250I0J243750D01*
G01*
G37*
G36*
G01*
X94525000Y-50331250D02*
X94525000Y-49768750D01*
G75*
G02*
X94768750Y-49525000I243750J0D01*
G01*
X95256250Y-49525000D01*
G75*
G02*
X95500000Y-49768750I0J-243750D01*
G01*
X95500000Y-50331250D01*
G75*
G02*
X95256250Y-50575000I-243750J0D01*
G01*
X94768750Y-50575000D01*
G75*
G02*
X94525000Y-50331250I0J243750D01*
G01*
G37*
G04 #@! TD*
D15*
G04 #@! TO.C,J2*
X96960000Y-66540000D03*
X99500000Y-66540000D03*
X96960000Y-64000000D03*
X99500000Y-64000000D03*
X96960000Y-61460000D03*
X99500000Y-61460000D03*
X96960000Y-58920000D03*
X99500000Y-58920000D03*
X96960000Y-56380000D03*
X99500000Y-56380000D03*
X96960000Y-53840000D03*
G36*
G01*
X98600000Y-54690000D02*
X98600000Y-52990000D01*
G75*
G02*
X98650000Y-52940000I50000J0D01*
G01*
X100350000Y-52940000D01*
G75*
G02*
X100400000Y-52990000I0J-50000D01*
G01*
X100400000Y-54690000D01*
G75*
G02*
X100350000Y-54740000I-50000J0D01*
G01*
X98650000Y-54740000D01*
G75*
G02*
X98600000Y-54690000I0J50000D01*
G01*
G37*
G04 #@! TD*
G04 #@! TO.C,J1*
G36*
G01*
X95400000Y-44850000D02*
X93350000Y-44850000D01*
G75*
G02*
X93300000Y-44800000I0J50000D01*
G01*
X93300000Y-40800000D01*
G75*
G02*
X93350000Y-40750000I50000J0D01*
G01*
X95400000Y-40750000D01*
G75*
G02*
X95450000Y-40800000I0J-50000D01*
G01*
X95450000Y-44800000D01*
G75*
G02*
X95400000Y-44850000I-50000J0D01*
G01*
G37*
G36*
G01*
X105250000Y-44850000D02*
X103200000Y-44850000D01*
G75*
G02*
X103150000Y-44800000I0J50000D01*
G01*
X103150000Y-40800000D01*
G75*
G02*
X103200000Y-40750000I50000J0D01*
G01*
X105250000Y-40750000D01*
G75*
G02*
X105300000Y-40800000I0J-50000D01*
G01*
X105300000Y-44800000D01*
G75*
G02*
X105250000Y-44850000I-50000J0D01*
G01*
G37*
G36*
G01*
X95400000Y-48850000D02*
X93350000Y-48850000D01*
G75*
G02*
X93300000Y-48800000I0J50000D01*
G01*
X93300000Y-45300000D01*
G75*
G02*
X93350000Y-45250000I50000J0D01*
G01*
X95400000Y-45250000D01*
G75*
G02*
X95450000Y-45300000I0J-50000D01*
G01*
X95450000Y-48800000D01*
G75*
G02*
X95400000Y-48850000I-50000J0D01*
G01*
G37*
G36*
G01*
X105250000Y-48850000D02*
X103200000Y-48850000D01*
G75*
G02*
X103150000Y-48800000I0J50000D01*
G01*
X103150000Y-45300000D01*
G75*
G02*
X103200000Y-45250000I50000J0D01*
G01*
X105250000Y-45250000D01*
G75*
G02*
X105300000Y-45300000I0J-50000D01*
G01*
X105300000Y-48800000D01*
G75*
G02*
X105250000Y-48850000I-50000J0D01*
G01*
G37*
D11*
X101500000Y-44750000D03*
X97100000Y-44750000D03*
G36*
G01*
X97400000Y-48175000D02*
X97400000Y-45925000D01*
G75*
G02*
X97450000Y-45875000I50000J0D01*
G01*
X97950000Y-45875000D01*
G75*
G02*
X98000000Y-45925000I0J-50000D01*
G01*
X98000000Y-48175000D01*
G75*
G02*
X97950000Y-48225000I-50000J0D01*
G01*
X97450000Y-48225000D01*
G75*
G02*
X97400000Y-48175000I0J50000D01*
G01*
G37*
G36*
G01*
X98200000Y-48175000D02*
X98200000Y-45925000D01*
G75*
G02*
X98250000Y-45875000I50000J0D01*
G01*
X98750000Y-45875000D01*
G75*
G02*
X98800000Y-45925000I0J-50000D01*
G01*
X98800000Y-48175000D01*
G75*
G02*
X98750000Y-48225000I-50000J0D01*
G01*
X98250000Y-48225000D01*
G75*
G02*
X98200000Y-48175000I0J50000D01*
G01*
G37*
G36*
G01*
X99000000Y-48175000D02*
X99000000Y-45925000D01*
G75*
G02*
X99050000Y-45875000I50000J0D01*
G01*
X99550000Y-45875000D01*
G75*
G02*
X99600000Y-45925000I0J-50000D01*
G01*
X99600000Y-48175000D01*
G75*
G02*
X99550000Y-48225000I-50000J0D01*
G01*
X99050000Y-48225000D01*
G75*
G02*
X99000000Y-48175000I0J50000D01*
G01*
G37*
G36*
G01*
X99800000Y-48175000D02*
X99800000Y-45925000D01*
G75*
G02*
X99850000Y-45875000I50000J0D01*
G01*
X100350000Y-45875000D01*
G75*
G02*
X100400000Y-45925000I0J-50000D01*
G01*
X100400000Y-48175000D01*
G75*
G02*
X100350000Y-48225000I-50000J0D01*
G01*
X99850000Y-48225000D01*
G75*
G02*
X99800000Y-48175000I0J50000D01*
G01*
G37*
G36*
G01*
X100600000Y-48175000D02*
X100600000Y-45925000D01*
G75*
G02*
X100650000Y-45875000I50000J0D01*
G01*
X101150000Y-45875000D01*
G75*
G02*
X101200000Y-45925000I0J-50000D01*
G01*
X101200000Y-48175000D01*
G75*
G02*
X101150000Y-48225000I-50000J0D01*
G01*
X100650000Y-48225000D01*
G75*
G02*
X100600000Y-48175000I0J50000D01*
G01*
G37*
G04 #@! TD*
G04 #@! TO.C,F1*
G36*
G01*
X104859375Y-52475000D02*
X102740625Y-52475000D01*
G75*
G02*
X102475000Y-52209375I0J265625D01*
G01*
X102475000Y-51040625D01*
G75*
G02*
X102740625Y-50775000I265625J0D01*
G01*
X104859375Y-50775000D01*
G75*
G02*
X105125000Y-51040625I0J-265625D01*
G01*
X105125000Y-52209375D01*
G75*
G02*
X104859375Y-52475000I-265625J0D01*
G01*
G37*
G36*
G01*
X104859375Y-55325000D02*
X102740625Y-55325000D01*
G75*
G02*
X102475000Y-55059375I0J265625D01*
G01*
X102475000Y-53890625D01*
G75*
G02*
X102740625Y-53625000I265625J0D01*
G01*
X104859375Y-53625000D01*
G75*
G02*
X105125000Y-53890625I0J-265625D01*
G01*
X105125000Y-55059375D01*
G75*
G02*
X104859375Y-55325000I-265625J0D01*
G01*
G37*
G04 #@! TD*
D13*
G04 #@! TO.C,H1*
X97247056Y-74102944D03*
X95550000Y-73400000D03*
X93852944Y-74102944D03*
X93150000Y-75800000D03*
X93852944Y-77497056D03*
X95550000Y-78200000D03*
X97247056Y-77497056D03*
X97950000Y-75800000D03*
D14*
X95550000Y-75800000D03*
G04 #@! TD*
M02*
