G04 #@! TF.GenerationSoftware,KiCad,Pcbnew,(5.99.0-1907-g1c46bf195)*
G04 #@! TF.CreationDate,2020-10-23T20:38:11+00:00*
G04 #@! TF.ProjectId,USB PMOD Panelised,55534220-504d-44f4-9420-50616e656c69,rev?*
G04 #@! TF.SameCoordinates,Original*
G04 #@! TF.FileFunction,Soldermask,Bot*
G04 #@! TF.FilePolarity,Negative*
%FSLAX46Y46*%
G04 Gerber Fmt 4.6, Leading zero omitted, Abs format (unit mm)*
G04 Created by KiCad (PCBNEW (5.99.0-1907-g1c46bf195)) date 2020-10-23 20:38:11*
%MOMM*%
%LPD*%
G01*
G04 APERTURE LIST*
%ADD10C,1.000000*%
%ADD11C,1.100000*%
%ADD12C,0.900000*%
%ADD13C,6.500000*%
%ADD14O,1.800000X1.800000*%
G04 APERTURE END LIST*
D10*
G04 #@! TO.C,J1*
X155500000Y-44750000D03*
X151100000Y-44750000D03*
G04 #@! TD*
D11*
G04 #@! TO.C,REF\u002A\u002A*
X109100000Y-87850000D03*
X109100000Y-89316667D03*
X109100000Y-90783333D03*
X107500000Y-87850000D03*
X107500000Y-89316667D03*
X107500000Y-90783333D03*
X109100000Y-92250000D03*
X107500000Y-92250000D03*
G04 #@! TD*
G04 #@! TO.C,REF\u002A\u002A*
X91100000Y-87850000D03*
X91100000Y-89316667D03*
X91100000Y-90783333D03*
X89500000Y-87850000D03*
X89500000Y-89316667D03*
X89500000Y-90783333D03*
X91100000Y-92250000D03*
X89500000Y-92250000D03*
G04 #@! TD*
G04 #@! TO.C,REF\u002A\u002A*
X163100000Y-106050000D03*
X163100000Y-107516667D03*
X163100000Y-108983333D03*
X161500000Y-106050000D03*
X161500000Y-107516667D03*
X161500000Y-108983333D03*
X163100000Y-110450000D03*
X161500000Y-110450000D03*
G04 #@! TD*
G04 #@! TO.C,REF\u002A\u002A*
X163100000Y-58550000D03*
X163100000Y-60016667D03*
X163100000Y-61483333D03*
X161500000Y-58550000D03*
X161500000Y-60016667D03*
X161500000Y-61483333D03*
X163100000Y-62950000D03*
X161500000Y-62950000D03*
G04 #@! TD*
G04 #@! TO.C,REF\u002A\u002A*
X127100000Y-58550000D03*
X127100000Y-60016667D03*
X127100000Y-61483333D03*
X125500000Y-58550000D03*
X125500000Y-60016667D03*
X125500000Y-61483333D03*
X127100000Y-62950000D03*
X125500000Y-62950000D03*
G04 #@! TD*
G04 #@! TO.C,REF\u002A\u002A*
X163100000Y-124350000D03*
X163100000Y-125816667D03*
X163100000Y-127283333D03*
X161500000Y-124350000D03*
X161500000Y-125816667D03*
X161500000Y-127283333D03*
X163100000Y-128750000D03*
X161500000Y-128750000D03*
G04 #@! TD*
G04 #@! TO.C,REF\u002A\u002A*
X109100000Y-124350000D03*
X109100000Y-125816667D03*
X109100000Y-127283333D03*
X107500000Y-124350000D03*
X107500000Y-125816667D03*
X107500000Y-127283333D03*
X109100000Y-128750000D03*
X107500000Y-128750000D03*
G04 #@! TD*
G04 #@! TO.C,REF\u002A\u002A*
X163100000Y-76850000D03*
X163100000Y-78316667D03*
X163100000Y-79783333D03*
X161500000Y-76850000D03*
X161500000Y-78316667D03*
X161500000Y-79783333D03*
X163100000Y-81250000D03*
X161500000Y-81250000D03*
G04 #@! TD*
G04 #@! TO.C,REF\u002A\u002A*
X145100000Y-124350000D03*
X145100000Y-125816667D03*
X145100000Y-127283333D03*
X143500000Y-124350000D03*
X143500000Y-125816667D03*
X143500000Y-127283333D03*
X145100000Y-128750000D03*
X143500000Y-128750000D03*
G04 #@! TD*
G04 #@! TO.C,REF\u002A\u002A*
X127100000Y-124350000D03*
X127100000Y-125816667D03*
X127100000Y-127283333D03*
X125500000Y-124350000D03*
X125500000Y-125816667D03*
X125500000Y-127283333D03*
X127100000Y-128750000D03*
X125500000Y-128750000D03*
G04 #@! TD*
G04 #@! TO.C,REF\u002A\u002A*
X91100000Y-124350000D03*
X91100000Y-125816667D03*
X91100000Y-127283333D03*
X89500000Y-124350000D03*
X89500000Y-125816667D03*
X89500000Y-127283333D03*
X91100000Y-128750000D03*
X89500000Y-128750000D03*
G04 #@! TD*
G04 #@! TO.C,REF\u002A\u002A*
X145100000Y-76850000D03*
X145100000Y-78316667D03*
X145100000Y-79783333D03*
X143500000Y-76850000D03*
X143500000Y-78316667D03*
X143500000Y-79783333D03*
X145100000Y-81250000D03*
X143500000Y-81250000D03*
G04 #@! TD*
G04 #@! TO.C,REF\u002A\u002A*
X127100000Y-76850000D03*
X127100000Y-78316667D03*
X127100000Y-79783333D03*
X125500000Y-76850000D03*
X125500000Y-78316667D03*
X125500000Y-79783333D03*
X127100000Y-81250000D03*
X125500000Y-81250000D03*
G04 #@! TD*
G04 #@! TO.C,REF\u002A\u002A*
X109100000Y-76850000D03*
X109100000Y-78316667D03*
X109100000Y-79783333D03*
X107500000Y-76850000D03*
X107500000Y-78316667D03*
X107500000Y-79783333D03*
X109100000Y-81250000D03*
X107500000Y-81250000D03*
G04 #@! TD*
G04 #@! TO.C,REF\u002A\u002A*
X145100000Y-106050000D03*
X145100000Y-107516667D03*
X145100000Y-108983333D03*
X143500000Y-106050000D03*
X143500000Y-107516667D03*
X143500000Y-108983333D03*
X145100000Y-110450000D03*
X143500000Y-110450000D03*
G04 #@! TD*
G04 #@! TO.C,REF\u002A\u002A*
X127100000Y-106050000D03*
X127100000Y-107516667D03*
X127100000Y-108983333D03*
X125500000Y-106050000D03*
X125500000Y-107516667D03*
X125500000Y-108983333D03*
X127100000Y-110450000D03*
X125500000Y-110450000D03*
G04 #@! TD*
G04 #@! TO.C,REF\u002A\u002A*
X109100000Y-106050000D03*
X109100000Y-107516667D03*
X109100000Y-108983333D03*
X107500000Y-106050000D03*
X107500000Y-107516667D03*
X107500000Y-108983333D03*
X109100000Y-110450000D03*
X107500000Y-110450000D03*
G04 #@! TD*
G04 #@! TO.C,REF\u002A\u002A*
X91100000Y-106050000D03*
X91100000Y-107516667D03*
X91100000Y-108983333D03*
X89500000Y-106050000D03*
X89500000Y-107516667D03*
X89500000Y-108983333D03*
X91100000Y-110450000D03*
X89500000Y-110450000D03*
G04 #@! TD*
G04 #@! TO.C,REF\u002A\u002A*
X145100000Y-58550000D03*
X145100000Y-60016667D03*
X145100000Y-61483333D03*
X143500000Y-58550000D03*
X143500000Y-60016667D03*
X143500000Y-61483333D03*
X145100000Y-62950000D03*
X143500000Y-62950000D03*
G04 #@! TD*
G04 #@! TO.C,REF\u002A\u002A*
X109100000Y-58550000D03*
X109100000Y-60016667D03*
X109100000Y-61483333D03*
X107500000Y-58550000D03*
X107500000Y-60016667D03*
X107500000Y-61483333D03*
X109100000Y-62950000D03*
X107500000Y-62950000D03*
G04 #@! TD*
G04 #@! TO.C,REF\u002A\u002A*
X151100000Y-83750000D03*
X152566667Y-83750000D03*
X154033333Y-83750000D03*
X151100000Y-85350000D03*
X152566667Y-85350000D03*
X154033333Y-85350000D03*
X155500000Y-83750000D03*
X155500000Y-85350000D03*
G04 #@! TD*
G04 #@! TO.C,REF\u002A\u002A*
X133100000Y-83750000D03*
X134566667Y-83750000D03*
X136033333Y-83750000D03*
X133100000Y-85350000D03*
X134566667Y-85350000D03*
X136033333Y-85350000D03*
X137500000Y-83750000D03*
X137500000Y-85350000D03*
G04 #@! TD*
G04 #@! TO.C,REF\u002A\u002A*
X115100000Y-83750000D03*
X116566667Y-83750000D03*
X118033333Y-83750000D03*
X115100000Y-85350000D03*
X116566667Y-85350000D03*
X118033333Y-85350000D03*
X119500000Y-83750000D03*
X119500000Y-85350000D03*
G04 #@! TD*
G04 #@! TO.C,REF\u002A\u002A*
X163100000Y-87850000D03*
X163100000Y-89316667D03*
X163100000Y-90783333D03*
X161500000Y-87850000D03*
X161500000Y-89316667D03*
X161500000Y-90783333D03*
X163100000Y-92250000D03*
X161500000Y-92250000D03*
G04 #@! TD*
G04 #@! TO.C,REF\u002A\u002A*
X145100000Y-87850000D03*
X145100000Y-89316667D03*
X145100000Y-90783333D03*
X143500000Y-87850000D03*
X143500000Y-89316667D03*
X143500000Y-90783333D03*
X145100000Y-92250000D03*
X143500000Y-92250000D03*
G04 #@! TD*
G04 #@! TO.C,REF\u002A\u002A*
X127100000Y-87850000D03*
X127100000Y-89316667D03*
X127100000Y-90783333D03*
X125500000Y-87850000D03*
X125500000Y-89316667D03*
X125500000Y-90783333D03*
X127100000Y-92250000D03*
X125500000Y-92250000D03*
G04 #@! TD*
G04 #@! TO.C,REF\u002A\u002A*
X163100000Y-40350000D03*
X163100000Y-41816667D03*
X163100000Y-43283333D03*
X161500000Y-40350000D03*
X161500000Y-41816667D03*
X161500000Y-43283333D03*
X163100000Y-44750000D03*
X161500000Y-44750000D03*
G04 #@! TD*
G04 #@! TO.C,REF\u002A\u002A*
X145100000Y-40350000D03*
X145100000Y-41816667D03*
X145100000Y-43283333D03*
X143500000Y-40350000D03*
X143500000Y-41816667D03*
X143500000Y-43283333D03*
X145100000Y-44750000D03*
X143500000Y-44750000D03*
G04 #@! TD*
G04 #@! TO.C,REF\u002A\u002A*
X127100000Y-40350000D03*
X127100000Y-41816667D03*
X127100000Y-43283333D03*
X125500000Y-40350000D03*
X125500000Y-41816667D03*
X125500000Y-43283333D03*
X127100000Y-44750000D03*
X125500000Y-44750000D03*
G04 #@! TD*
D10*
G04 #@! TO.C,J1*
X155500000Y-92250000D03*
X151100000Y-92250000D03*
G04 #@! TD*
G04 #@! TO.C,J1*
X137500000Y-92250000D03*
X133100000Y-92250000D03*
G04 #@! TD*
G04 #@! TO.C,J1*
X119500000Y-92250000D03*
X115100000Y-92250000D03*
G04 #@! TD*
G04 #@! TO.C,J1*
X101500000Y-92250000D03*
X97100000Y-92250000D03*
G04 #@! TD*
G04 #@! TO.C,J1*
X137500000Y-44750000D03*
X133100000Y-44750000D03*
G04 #@! TD*
G04 #@! TO.C,J1*
X119500000Y-44750000D03*
X115100000Y-44750000D03*
G04 #@! TD*
D12*
G04 #@! TO.C,H1*
X151247056Y-121602944D03*
X149550000Y-120900000D03*
X147852944Y-121602944D03*
X147150000Y-123300000D03*
X147852944Y-124997056D03*
X149550000Y-125700000D03*
X151247056Y-124997056D03*
X151950000Y-123300000D03*
D13*
X149550000Y-123300000D03*
G04 #@! TD*
D12*
G04 #@! TO.C,H1*
X133247056Y-121602944D03*
X131550000Y-120900000D03*
X129852944Y-121602944D03*
X129150000Y-123300000D03*
X129852944Y-124997056D03*
X131550000Y-125700000D03*
X133247056Y-124997056D03*
X133950000Y-123300000D03*
D13*
X131550000Y-123300000D03*
G04 #@! TD*
D12*
G04 #@! TO.C,H1*
X115247056Y-121602944D03*
X113550000Y-120900000D03*
X111852944Y-121602944D03*
X111150000Y-123300000D03*
X111852944Y-124997056D03*
X113550000Y-125700000D03*
X115247056Y-124997056D03*
X115950000Y-123300000D03*
D13*
X113550000Y-123300000D03*
G04 #@! TD*
D12*
G04 #@! TO.C,H1*
X97247056Y-121602944D03*
X95550000Y-120900000D03*
X93852944Y-121602944D03*
X93150000Y-123300000D03*
X93852944Y-124997056D03*
X95550000Y-125700000D03*
X97247056Y-124997056D03*
X97950000Y-123300000D03*
D13*
X95550000Y-123300000D03*
G04 #@! TD*
D12*
G04 #@! TO.C,H1*
X151247056Y-74102944D03*
X149550000Y-73400000D03*
X147852944Y-74102944D03*
X147150000Y-75800000D03*
X147852944Y-77497056D03*
X149550000Y-78200000D03*
X151247056Y-77497056D03*
X151950000Y-75800000D03*
D13*
X149550000Y-75800000D03*
G04 #@! TD*
D12*
G04 #@! TO.C,H1*
X133247056Y-74102944D03*
X131550000Y-73400000D03*
X129852944Y-74102944D03*
X129150000Y-75800000D03*
X129852944Y-77497056D03*
X131550000Y-78200000D03*
X133247056Y-77497056D03*
X133950000Y-75800000D03*
D13*
X131550000Y-75800000D03*
G04 #@! TD*
D12*
G04 #@! TO.C,H1*
X115247056Y-74102944D03*
X113550000Y-73400000D03*
X111852944Y-74102944D03*
X111150000Y-75800000D03*
X111852944Y-77497056D03*
X113550000Y-78200000D03*
X115247056Y-77497056D03*
X115950000Y-75800000D03*
D13*
X113550000Y-75800000D03*
G04 #@! TD*
D14*
G04 #@! TO.C,J2*
X150960000Y-114040000D03*
X153500000Y-114040000D03*
X150960000Y-111500000D03*
X153500000Y-111500000D03*
X150960000Y-108960000D03*
X153500000Y-108960000D03*
X150960000Y-106420000D03*
X153500000Y-106420000D03*
X150960000Y-103880000D03*
X153500000Y-103880000D03*
X150960000Y-101340000D03*
G36*
G01*
X152600000Y-102190000D02*
X152600000Y-100490000D01*
G75*
G02*
X152650000Y-100440000I50000J0D01*
G01*
X154350000Y-100440000D01*
G75*
G02*
X154400000Y-100490000I0J-50000D01*
G01*
X154400000Y-102190000D01*
G75*
G02*
X154350000Y-102240000I-50000J0D01*
G01*
X152650000Y-102240000D01*
G75*
G02*
X152600000Y-102190000I0J50000D01*
G01*
G37*
G04 #@! TD*
G04 #@! TO.C,J2*
X132960000Y-114040000D03*
X135500000Y-114040000D03*
X132960000Y-111500000D03*
X135500000Y-111500000D03*
X132960000Y-108960000D03*
X135500000Y-108960000D03*
X132960000Y-106420000D03*
X135500000Y-106420000D03*
X132960000Y-103880000D03*
X135500000Y-103880000D03*
X132960000Y-101340000D03*
G36*
G01*
X134600000Y-102190000D02*
X134600000Y-100490000D01*
G75*
G02*
X134650000Y-100440000I50000J0D01*
G01*
X136350000Y-100440000D01*
G75*
G02*
X136400000Y-100490000I0J-50000D01*
G01*
X136400000Y-102190000D01*
G75*
G02*
X136350000Y-102240000I-50000J0D01*
G01*
X134650000Y-102240000D01*
G75*
G02*
X134600000Y-102190000I0J50000D01*
G01*
G37*
G04 #@! TD*
G04 #@! TO.C,J2*
X114960000Y-114040000D03*
X117500000Y-114040000D03*
X114960000Y-111500000D03*
X117500000Y-111500000D03*
X114960000Y-108960000D03*
X117500000Y-108960000D03*
X114960000Y-106420000D03*
X117500000Y-106420000D03*
X114960000Y-103880000D03*
X117500000Y-103880000D03*
X114960000Y-101340000D03*
G36*
G01*
X116600000Y-102190000D02*
X116600000Y-100490000D01*
G75*
G02*
X116650000Y-100440000I50000J0D01*
G01*
X118350000Y-100440000D01*
G75*
G02*
X118400000Y-100490000I0J-50000D01*
G01*
X118400000Y-102190000D01*
G75*
G02*
X118350000Y-102240000I-50000J0D01*
G01*
X116650000Y-102240000D01*
G75*
G02*
X116600000Y-102190000I0J50000D01*
G01*
G37*
G04 #@! TD*
G04 #@! TO.C,J2*
X96960000Y-114040000D03*
X99500000Y-114040000D03*
X96960000Y-111500000D03*
X99500000Y-111500000D03*
X96960000Y-108960000D03*
X99500000Y-108960000D03*
X96960000Y-106420000D03*
X99500000Y-106420000D03*
X96960000Y-103880000D03*
X99500000Y-103880000D03*
X96960000Y-101340000D03*
G36*
G01*
X98600000Y-102190000D02*
X98600000Y-100490000D01*
G75*
G02*
X98650000Y-100440000I50000J0D01*
G01*
X100350000Y-100440000D01*
G75*
G02*
X100400000Y-100490000I0J-50000D01*
G01*
X100400000Y-102190000D01*
G75*
G02*
X100350000Y-102240000I-50000J0D01*
G01*
X98650000Y-102240000D01*
G75*
G02*
X98600000Y-102190000I0J50000D01*
G01*
G37*
G04 #@! TD*
G04 #@! TO.C,J2*
X150960000Y-66540000D03*
X153500000Y-66540000D03*
X150960000Y-64000000D03*
X153500000Y-64000000D03*
X150960000Y-61460000D03*
X153500000Y-61460000D03*
X150960000Y-58920000D03*
X153500000Y-58920000D03*
X150960000Y-56380000D03*
X153500000Y-56380000D03*
X150960000Y-53840000D03*
G36*
G01*
X152600000Y-54690000D02*
X152600000Y-52990000D01*
G75*
G02*
X152650000Y-52940000I50000J0D01*
G01*
X154350000Y-52940000D01*
G75*
G02*
X154400000Y-52990000I0J-50000D01*
G01*
X154400000Y-54690000D01*
G75*
G02*
X154350000Y-54740000I-50000J0D01*
G01*
X152650000Y-54740000D01*
G75*
G02*
X152600000Y-54690000I0J50000D01*
G01*
G37*
G04 #@! TD*
G04 #@! TO.C,J2*
X132960000Y-66540000D03*
X135500000Y-66540000D03*
X132960000Y-64000000D03*
X135500000Y-64000000D03*
X132960000Y-61460000D03*
X135500000Y-61460000D03*
X132960000Y-58920000D03*
X135500000Y-58920000D03*
X132960000Y-56380000D03*
X135500000Y-56380000D03*
X132960000Y-53840000D03*
G36*
G01*
X134600000Y-54690000D02*
X134600000Y-52990000D01*
G75*
G02*
X134650000Y-52940000I50000J0D01*
G01*
X136350000Y-52940000D01*
G75*
G02*
X136400000Y-52990000I0J-50000D01*
G01*
X136400000Y-54690000D01*
G75*
G02*
X136350000Y-54740000I-50000J0D01*
G01*
X134650000Y-54740000D01*
G75*
G02*
X134600000Y-54690000I0J50000D01*
G01*
G37*
G04 #@! TD*
G04 #@! TO.C,J2*
X114960000Y-66540000D03*
X117500000Y-66540000D03*
X114960000Y-64000000D03*
X117500000Y-64000000D03*
X114960000Y-61460000D03*
X117500000Y-61460000D03*
X114960000Y-58920000D03*
X117500000Y-58920000D03*
X114960000Y-56380000D03*
X117500000Y-56380000D03*
X114960000Y-53840000D03*
G36*
G01*
X116600000Y-54690000D02*
X116600000Y-52990000D01*
G75*
G02*
X116650000Y-52940000I50000J0D01*
G01*
X118350000Y-52940000D01*
G75*
G02*
X118400000Y-52990000I0J-50000D01*
G01*
X118400000Y-54690000D01*
G75*
G02*
X118350000Y-54740000I-50000J0D01*
G01*
X116650000Y-54740000D01*
G75*
G02*
X116600000Y-54690000I0J50000D01*
G01*
G37*
G04 #@! TD*
D11*
G04 #@! TO.C,REF\u002A\u002A*
X91100000Y-58550000D03*
X91100000Y-60016667D03*
X91100000Y-61483333D03*
X89500000Y-58550000D03*
X89500000Y-60016667D03*
X89500000Y-61483333D03*
X91100000Y-62950000D03*
X89500000Y-62950000D03*
G04 #@! TD*
G04 #@! TO.C,REF\u002A\u002A*
X91100000Y-76850000D03*
X91100000Y-78316667D03*
X91100000Y-79783333D03*
X89500000Y-76850000D03*
X89500000Y-78316667D03*
X89500000Y-79783333D03*
X91100000Y-81250000D03*
X89500000Y-81250000D03*
G04 #@! TD*
G04 #@! TO.C,REF\u002A\u002A*
X91100000Y-40350000D03*
X91100000Y-41816667D03*
X91100000Y-43283333D03*
X89500000Y-40350000D03*
X89500000Y-41816667D03*
X89500000Y-43283333D03*
X91100000Y-44750000D03*
X89500000Y-44750000D03*
G04 #@! TD*
G04 #@! TO.C,REF\u002A\u002A*
X97100000Y-83750000D03*
X98566667Y-83750000D03*
X100033333Y-83750000D03*
X97100000Y-85350000D03*
X98566667Y-85350000D03*
X100033333Y-85350000D03*
X101500000Y-83750000D03*
X101500000Y-85350000D03*
G04 #@! TD*
G04 #@! TO.C,REF\u002A\u002A*
X109100000Y-40350000D03*
X109100000Y-41816667D03*
X109100000Y-43283333D03*
X107500000Y-40350000D03*
X107500000Y-41816667D03*
X107500000Y-43283333D03*
X109100000Y-44750000D03*
X107500000Y-44750000D03*
G04 #@! TD*
D14*
G04 #@! TO.C,J2*
X96960000Y-66540000D03*
X99500000Y-66540000D03*
X96960000Y-64000000D03*
X99500000Y-64000000D03*
X96960000Y-61460000D03*
X99500000Y-61460000D03*
X96960000Y-58920000D03*
X99500000Y-58920000D03*
X96960000Y-56380000D03*
X99500000Y-56380000D03*
X96960000Y-53840000D03*
G36*
G01*
X98600000Y-54690000D02*
X98600000Y-52990000D01*
G75*
G02*
X98650000Y-52940000I50000J0D01*
G01*
X100350000Y-52940000D01*
G75*
G02*
X100400000Y-52990000I0J-50000D01*
G01*
X100400000Y-54690000D01*
G75*
G02*
X100350000Y-54740000I-50000J0D01*
G01*
X98650000Y-54740000D01*
G75*
G02*
X98600000Y-54690000I0J50000D01*
G01*
G37*
G04 #@! TD*
D10*
G04 #@! TO.C,J1*
X101500000Y-44750000D03*
X97100000Y-44750000D03*
G04 #@! TD*
D12*
G04 #@! TO.C,H1*
X97247056Y-74102944D03*
X95550000Y-73400000D03*
X93852944Y-74102944D03*
X93150000Y-75800000D03*
X93852944Y-77497056D03*
X95550000Y-78200000D03*
X97247056Y-77497056D03*
X97950000Y-75800000D03*
D13*
X95550000Y-75800000D03*
G04 #@! TD*
M02*
