G04 #@! TF.GenerationSoftware,KiCad,Pcbnew,(5.99.0-1907-g1c46bf195)*
G04 #@! TF.CreationDate,2020-10-23T20:38:11+00:00*
G04 #@! TF.ProjectId,USB PMOD Panelised,55534220-504d-44f4-9420-50616e656c69,rev?*
G04 #@! TF.SameCoordinates,Original*
G04 #@! TF.FileFunction,Profile,NP*
%FSLAX46Y46*%
G04 Gerber Fmt 4.6, Leading zero omitted, Abs format (unit mm)*
G04 Created by KiCad (PCBNEW (5.99.0-1907-g1c46bf195)) date 2020-10-23 20:38:11*
%MOMM*%
%LPD*%
G01*
G04 APERTURE LIST*
G04 #@! TA.AperFunction,Profile*
%ADD10C,0.050000*%
G04 #@! TD*
G04 APERTURE END LIST*
D10*
X163800000Y-130550000D02*
X176300000Y-130550000D01*
X76300000Y-130550000D02*
X88800000Y-130550000D01*
X176300000Y-38550000D02*
X163800000Y-38550000D01*
X76300000Y-38550000D02*
X88800000Y-38550000D01*
X76300000Y-130550000D02*
X76300000Y-38550000D01*
X176300000Y-38550000D02*
X176300000Y-130550000D01*
X109800000Y-94050000D02*
X109800000Y-104250000D01*
X160800000Y-94050000D02*
X160800000Y-104250000D01*
X160800000Y-64750000D02*
X160800000Y-75050000D01*
X160800000Y-56550000D02*
X160800000Y-56750000D01*
X160800000Y-46550000D02*
X160800000Y-56550000D01*
X157300000Y-83050000D02*
X160800000Y-83050000D01*
X145800000Y-83050000D02*
X149300000Y-83050000D01*
X139300000Y-83050000D02*
X142800000Y-83050000D01*
X127800000Y-83050000D02*
X131300000Y-83050000D01*
X121300000Y-83050000D02*
X124800000Y-83050000D01*
X109800000Y-83050000D02*
X113300000Y-83050000D01*
X103300000Y-83050000D02*
X106800000Y-83050000D01*
X160800000Y-112250000D02*
X160800000Y-122550000D01*
X91800000Y-112250000D02*
X91800000Y-122550000D01*
X91800000Y-94050000D02*
X91800000Y-104250000D01*
X91800000Y-83050000D02*
X95300000Y-83050000D01*
X91800000Y-64750000D02*
X91800000Y-75050000D01*
X91800000Y-46550000D02*
X91800000Y-56750000D01*
X88800000Y-83050000D02*
X88800000Y-86050000D01*
X163800000Y-83050000D02*
X163800000Y-86050000D01*
X157300000Y-86050000D02*
X160800000Y-86050000D01*
X139300000Y-86050000D02*
X142800000Y-86050000D01*
X121300000Y-86050000D02*
X124800000Y-86050000D01*
X88800000Y-112250000D02*
G75*
G02*
X91800000Y-112250000I1500000J0D01*
G01*
X142800000Y-64750000D02*
G75*
G02*
X145800000Y-64750000I1500000J0D01*
G01*
X106800000Y-64750000D02*
G75*
G02*
X109800000Y-64750000I1500000J0D01*
G01*
X163800000Y-104250000D02*
G75*
G02*
X160800000Y-104250000I-1500000J0D01*
G01*
X163800000Y-56750000D02*
G75*
G02*
X160800000Y-56750000I-1500000J0D01*
G01*
X145800000Y-56750000D02*
G75*
G02*
X142800000Y-56750000I-1500000J0D01*
G01*
X145800000Y-104250000D02*
G75*
G02*
X142800000Y-104250000I-1500000J0D01*
G01*
X127800000Y-104250000D02*
G75*
G02*
X124800000Y-104250000I-1500000J0D01*
G01*
X109800000Y-104250000D02*
G75*
G02*
X106800000Y-104250000I-1500000J0D01*
G01*
X91800000Y-104250000D02*
G75*
G02*
X88800000Y-104250000I-1500000J0D01*
G01*
X127800000Y-56750000D02*
G75*
G02*
X124800000Y-56750000I-1500000J0D01*
G01*
X109800000Y-122550000D02*
G75*
G02*
X106800000Y-122550000I-1500000J0D01*
G01*
X91800000Y-122550000D02*
G75*
G02*
X88800000Y-122550000I-1500000J0D01*
G01*
X145800000Y-75050000D02*
G75*
G02*
X142800000Y-75050000I-1500000J0D01*
G01*
X109800000Y-75050000D02*
G75*
G02*
X106800000Y-75050000I-1500000J0D01*
G01*
X88800000Y-94050000D02*
G75*
G02*
X91800000Y-94050000I1500000J0D01*
G01*
X124800000Y-46550000D02*
G75*
G02*
X127800000Y-46550000I1500000J0D01*
G01*
X106800000Y-46550000D02*
G75*
G02*
X109800000Y-46550000I1500000J0D01*
G01*
X160800000Y-130550000D02*
G75*
G02*
X163800000Y-130550000I1500000J0D01*
G01*
X160800000Y-83050000D02*
G75*
G02*
X163800000Y-83050000I1500000J0D01*
G01*
X145800000Y-86050000D02*
X149300000Y-86050000D01*
X127800000Y-86050000D02*
X131300000Y-86050000D01*
X109800000Y-86050000D02*
X113300000Y-86050000D01*
X109800000Y-86050000D02*
G75*
G02*
X106800000Y-86050000I-1500000J0D01*
G01*
X91800000Y-86050000D02*
G75*
G02*
X88800000Y-86050000I-1500000J0D01*
G01*
X142800000Y-112250000D02*
X142800000Y-122550000D01*
X124800000Y-112250000D02*
X124800000Y-122550000D01*
X106800000Y-112250000D02*
X106800000Y-122550000D01*
X88800000Y-112250000D02*
X88800000Y-122550000D01*
X142800000Y-64750000D02*
X142800000Y-75050000D01*
X124800000Y-64750000D02*
X124800000Y-75050000D01*
X106800000Y-64750000D02*
X106800000Y-75050000D01*
X163800000Y-112250000D02*
X163800000Y-122550000D01*
X145800000Y-112250000D02*
X145800000Y-122550000D01*
X127800000Y-112250000D02*
X127800000Y-122550000D01*
X109800000Y-112250000D02*
X109800000Y-122550000D01*
X163800000Y-64750000D02*
X163800000Y-75050000D01*
X145800000Y-64750000D02*
X145800000Y-75050000D01*
X127800000Y-64750000D02*
X127800000Y-75050000D01*
X160800000Y-94050000D02*
G75*
G02*
X163800000Y-94050000I1500000J0D01*
G01*
X142800000Y-94050000D02*
G75*
G02*
X145800000Y-94050000I1500000J0D01*
G01*
X124800000Y-94050000D02*
G75*
G02*
X127800000Y-94050000I1500000J0D01*
G01*
X106800000Y-94050000D02*
G75*
G02*
X109800000Y-94050000I1500000J0D01*
G01*
X160800000Y-46550000D02*
G75*
G02*
X163800000Y-46550000I1500000J0D01*
G01*
X142800000Y-46550000D02*
G75*
G02*
X145800000Y-46550000I1500000J0D01*
G01*
X163800000Y-86050000D02*
G75*
G02*
X160800000Y-86050000I-1500000J0D01*
G01*
X145800000Y-86050000D02*
G75*
G02*
X142800000Y-86050000I-1500000J0D01*
G01*
X127800000Y-86050000D02*
G75*
G02*
X124800000Y-86050000I-1500000J0D01*
G01*
X163800000Y-38550000D02*
G75*
G02*
X160800000Y-38550000I-1500000J0D01*
G01*
X145800000Y-38550000D02*
G75*
G02*
X142800000Y-38550000I-1500000J0D01*
G01*
X127800000Y-38550000D02*
G75*
G02*
X124800000Y-38550000I-1500000J0D01*
G01*
X142800000Y-94050000D02*
X142800000Y-104250000D01*
X124800000Y-94050000D02*
X124800000Y-104250000D01*
X106800000Y-94050000D02*
X106800000Y-104250000D01*
X88800000Y-94050000D02*
X88800000Y-104250000D01*
X142800000Y-46550000D02*
X142800000Y-56750000D01*
X124800000Y-46550000D02*
X124800000Y-56750000D01*
X106800000Y-46550000D02*
X106800000Y-56750000D01*
X157300000Y-86050000D02*
G75*
G02*
X157300000Y-83050000I0J1500000D01*
G01*
X139300000Y-86050000D02*
G75*
G02*
X139300000Y-83050000I0J1500000D01*
G01*
X121300000Y-86050000D02*
G75*
G02*
X121300000Y-83050000I0J1500000D01*
G01*
X149300000Y-83050000D02*
G75*
G02*
X149300000Y-86050000I0J-1500000D01*
G01*
X131300000Y-83050000D02*
G75*
G02*
X131300000Y-86050000I0J-1500000D01*
G01*
X113300000Y-83050000D02*
G75*
G02*
X113300000Y-86050000I0J-1500000D01*
G01*
X160800000Y-112250000D02*
G75*
G02*
X163800000Y-112250000I1500000J0D01*
G01*
X142800000Y-112250000D02*
G75*
G02*
X145800000Y-112250000I1500000J0D01*
G01*
X124800000Y-112250000D02*
G75*
G02*
X127800000Y-112250000I1500000J0D01*
G01*
X106800000Y-112250000D02*
G75*
G02*
X109800000Y-112250000I1500000J0D01*
G01*
X160800000Y-64750000D02*
G75*
G02*
X163800000Y-64750000I1500000J0D01*
G01*
X124800000Y-64750000D02*
G75*
G02*
X127800000Y-64750000I1500000J0D01*
G01*
X163800000Y-122550000D02*
G75*
G02*
X160800000Y-122550000I-1500000J0D01*
G01*
X145800000Y-122550000D02*
G75*
G02*
X142800000Y-122550000I-1500000J0D01*
G01*
X127800000Y-122550000D02*
G75*
G02*
X124800000Y-122550000I-1500000J0D01*
G01*
X163800000Y-75050000D02*
G75*
G02*
X160800000Y-75050000I-1500000J0D01*
G01*
X127800000Y-75050000D02*
G75*
G02*
X124800000Y-75050000I-1500000J0D01*
G01*
X163800000Y-94050000D02*
X163800000Y-104250000D01*
X145800000Y-94050000D02*
X145800000Y-104250000D01*
X127800000Y-94050000D02*
X127800000Y-104250000D01*
X163800000Y-46550000D02*
X163800000Y-56750000D01*
X145800000Y-46550000D02*
X145800000Y-56750000D01*
X127800000Y-46550000D02*
X127800000Y-56750000D01*
X142800000Y-130550000D02*
G75*
G02*
X145800000Y-130550000I1500000J0D01*
G01*
X124800000Y-130550000D02*
G75*
G02*
X127800000Y-130550000I1500000J0D01*
G01*
X106800000Y-130550000D02*
G75*
G02*
X109800000Y-130550000I1500000J0D01*
G01*
X88800000Y-130550000D02*
G75*
G02*
X91800000Y-130550000I1500000J0D01*
G01*
X142800000Y-83050000D02*
G75*
G02*
X145800000Y-83050000I1500000J0D01*
G01*
X124800000Y-83050000D02*
G75*
G02*
X127800000Y-83050000I1500000J0D01*
G01*
X145800000Y-130550000D02*
X160800000Y-130550000D01*
X127800000Y-130550000D02*
X142800000Y-130550000D01*
X109800000Y-130550000D02*
X124800000Y-130550000D01*
X91800000Y-130550000D02*
X106800000Y-130550000D01*
X160800000Y-38550000D02*
X145800000Y-38550000D01*
X142800000Y-38550000D02*
X127800000Y-38550000D01*
X124800000Y-38550000D02*
X109800000Y-38550000D01*
X88800000Y-83050000D02*
G75*
G02*
X91800000Y-83050000I1500000J0D01*
G01*
X88800000Y-46550000D02*
X88800000Y-56750000D01*
X88800000Y-64750000D02*
X88800000Y-75050000D01*
X91800000Y-38550000D02*
G75*
G02*
X88800000Y-38550000I-1500000J0D01*
G01*
X88800000Y-46550000D02*
G75*
G02*
X91800000Y-46550000I1500000J0D01*
G01*
X91800000Y-75050000D02*
G75*
G02*
X88800000Y-75050000I-1500000J0D01*
G01*
X91800000Y-56750000D02*
G75*
G02*
X88800000Y-56750000I-1500000J0D01*
G01*
X88800000Y-64750000D02*
G75*
G02*
X91800000Y-64750000I1500000J0D01*
G01*
X91800000Y-86050000D02*
X95300000Y-86050000D01*
X109800000Y-64750000D02*
X109800000Y-75050000D01*
X109800000Y-46550000D02*
X109800000Y-56750000D01*
X95300000Y-83050000D02*
G75*
G02*
X95300000Y-86050000I0J-1500000D01*
G01*
X109800000Y-56750000D02*
G75*
G02*
X106800000Y-56750000I-1500000J0D01*
G01*
X109800000Y-38550000D02*
G75*
G02*
X106800000Y-38550000I-1500000J0D01*
G01*
X106800000Y-83050000D02*
G75*
G02*
X109800000Y-83050000I1500000J0D01*
G01*
X103300000Y-86050000D02*
G75*
G02*
X103300000Y-83050000I0J1500000D01*
G01*
X103300000Y-86050000D02*
X106800000Y-86050000D01*
X106800000Y-38550000D02*
X91800000Y-38550000D01*
M02*
