M48
; DRILL file {KiCad (5.99.0-1907-g1c46bf195)} date Fri Oct 23 20:38:16 2020
; FORMAT={-:-/ absolute / inch / decimal}
; #@! TF.CreationDate,2020-10-23T20:38:16+00:00
; #@! TF.GenerationSoftware,Kicad,Pcbnew,(5.99.0-1907-g1c46bf195)
; #@! TF.FileFunction,NonPlated,1,2,NPTH
FMAT,2
INCH
T1C0.0354
T2C0.0394
%
G90
G05
T1
X3.8228Y-3.6319
X3.8228Y-1.7618
X3.9961Y-1.7618
X5.9488Y-3.6319
X6.122Y-3.6319
X5.9488Y-1.7618
X6.122Y-1.7618
X5.2402Y-1.7618
X5.4134Y-1.7618
X4.5315Y-1.7618
X4.7047Y-1.7618
X3.9961Y-3.6319
X4.5315Y-3.6319
X4.7047Y-3.6319
X5.2402Y-3.6319
X5.4134Y-3.6319
T2
X4.2323Y-2.3051
X4.2323Y-2.3629
X4.2323Y-2.4206
X4.2323Y-2.4783
X4.2953Y-2.3051
X4.2953Y-2.3629
X4.2953Y-2.4206
X4.2953Y-2.4783
X5.6496Y-4.8957
X5.6496Y-4.9534
X5.6496Y-5.0112
X5.6496Y-5.0689
X5.7126Y-4.8957
X5.7126Y-4.9534
X5.7126Y-5.0112
X5.7126Y-5.0689
X6.3583Y-2.3051
X6.3583Y-2.3629
X6.3583Y-2.4206
X6.3583Y-2.4783
X6.4213Y-2.3051
X6.4213Y-2.3629
X6.4213Y-2.4206
X6.4213Y-2.4783
X3.5236Y-3.0256
X3.5236Y-3.0833
X3.5236Y-3.1411
X3.5236Y-3.1988
X3.5866Y-3.0256
X3.5866Y-3.0833
X3.5866Y-3.1411
X3.5866Y-3.1988
X4.5315Y-3.2972
X4.5315Y-3.3602
X4.5892Y-3.2972
X4.5892Y-3.3602
X4.647Y-3.2972
X4.647Y-3.3602
X4.7047Y-3.2972
X4.7047Y-3.3602
X4.9409Y-3.0256
X4.9409Y-3.0833
X4.9409Y-3.1411
X4.9409Y-3.1988
X5.0039Y-3.0256
X5.0039Y-3.0833
X5.0039Y-3.1411
X5.0039Y-3.1988
X4.9409Y-4.1752
X4.9409Y-4.2329
X4.9409Y-4.2907
X4.9409Y-4.3484
X5.0039Y-4.1752
X5.0039Y-4.2329
X5.0039Y-4.2907
X5.0039Y-4.3484
X4.2323Y-1.5886
X4.2323Y-1.6463
X4.2323Y-1.7041
X4.2323Y-1.7618
X4.2953Y-1.5886
X4.2953Y-1.6463
X4.2953Y-1.7041
X4.2953Y-1.7618
X4.2323Y-4.1752
X4.2323Y-4.2329
X4.2323Y-4.2907
X4.2323Y-4.3484
X4.2953Y-4.1752
X4.2953Y-4.2329
X4.2953Y-4.2907
X4.2953Y-4.3484
X5.6496Y-3.4587
X5.6496Y-3.5164
X5.6496Y-3.5741
X5.6496Y-3.6319
X5.7126Y-3.4587
X5.7126Y-3.5164
X5.7126Y-3.5741
X5.7126Y-3.6319
X4.9409Y-3.4587
X4.9409Y-3.5164
X4.9409Y-3.5741
X4.9409Y-3.6319
X5.0039Y-3.4587
X5.0039Y-3.5164
X5.0039Y-3.5741
X5.0039Y-3.6319
X3.5236Y-3.4587
X3.5236Y-3.5164
X3.5236Y-3.5741
X3.5236Y-3.6319
X3.5866Y-3.4587
X3.5866Y-3.5164
X3.5866Y-3.5741
X3.5866Y-3.6319
X4.9409Y-1.5886
X4.9409Y-1.6463
X4.9409Y-1.7041
X4.9409Y-1.7618
X5.0039Y-1.5886
X5.0039Y-1.6463
X5.0039Y-1.7041
X5.0039Y-1.7618
X5.2402Y-3.2972
X5.2402Y-3.3602
X5.2979Y-3.2972
X5.2979Y-3.3602
X5.3556Y-3.2972
X5.3556Y-3.3602
X5.4134Y-3.2972
X5.4134Y-3.3602
X5.6496Y-4.1752
X5.6496Y-4.2329
X5.6496Y-4.2907
X5.6496Y-4.3484
X5.7126Y-4.1752
X5.7126Y-4.2329
X5.7126Y-4.2907
X5.7126Y-4.3484
X5.6496Y-3.0256
X5.6496Y-3.0833
X5.6496Y-3.1411
X5.6496Y-3.1988
X5.7126Y-3.0256
X5.7126Y-3.0833
X5.7126Y-3.1411
X5.7126Y-3.1988
X3.5236Y-1.5886
X3.5236Y-1.6463
X3.5236Y-1.7041
X3.5236Y-1.7618
X3.5866Y-1.5886
X3.5866Y-1.6463
X3.5866Y-1.7041
X3.5866Y-1.7618
X3.8228Y-3.2972
X3.8228Y-3.3602
X3.8806Y-3.2972
X3.8806Y-3.3602
X3.9383Y-3.2972
X3.9383Y-3.3602
X3.9961Y-3.2972
X3.9961Y-3.3602
X5.6496Y-2.3051
X5.6496Y-2.3629
X5.6496Y-2.4206
X5.6496Y-2.4783
X5.7126Y-2.3051
X5.7126Y-2.3629
X5.7126Y-2.4206
X5.7126Y-2.4783
X4.2323Y-3.0256
X4.2323Y-3.0833
X4.2323Y-3.1411
X4.2323Y-3.1988
X4.2953Y-3.0256
X4.2953Y-3.0833
X4.2953Y-3.1411
X4.2953Y-3.1988
X5.6496Y-1.5886
X5.6496Y-1.6463
X5.6496Y-1.7041
X5.6496Y-1.7618
X5.7126Y-1.5886
X5.7126Y-1.6463
X5.7126Y-1.7041
X5.7126Y-1.7618
X3.5236Y-2.3051
X3.5236Y-2.3629
X3.5236Y-2.4206
X3.5236Y-2.4783
X3.5866Y-2.3051
X3.5866Y-2.3629
X3.5866Y-2.4206
X3.5866Y-2.4783
X4.9409Y-4.8957
X4.9409Y-4.9534
X4.9409Y-5.0112
X4.9409Y-5.0689
X5.0039Y-4.8957
X5.0039Y-4.9534
X5.0039Y-5.0112
X5.0039Y-5.0689
X4.2323Y-3.4587
X4.2323Y-3.5164
X4.2323Y-3.5741
X4.2323Y-3.6319
X4.2953Y-3.4587
X4.2953Y-3.5164
X4.2953Y-3.5741
X4.2953Y-3.6319
X3.5236Y-4.8957
X3.5236Y-4.9534
X3.5236Y-5.0112
X3.5236Y-5.0689
X3.5866Y-4.8957
X3.5866Y-4.9534
X3.5866Y-5.0112
X3.5866Y-5.0689
X4.2323Y-4.8957
X4.2323Y-4.9534
X4.2323Y-5.0112
X4.2323Y-5.0689
X4.2953Y-4.8957
X4.2953Y-4.9534
X4.2953Y-5.0112
X4.2953Y-5.0689
X6.3583Y-3.4587
X6.3583Y-3.5164
X6.3583Y-3.5741
X6.3583Y-3.6319
X6.4213Y-3.4587
X6.4213Y-3.5164
X6.4213Y-3.5741
X6.4213Y-3.6319
X3.5236Y-4.1752
X3.5236Y-4.2329
X3.5236Y-4.2907
X3.5236Y-4.3484
X3.5866Y-4.1752
X3.5866Y-4.2329
X3.5866Y-4.2907
X3.5866Y-4.3484
X6.3583Y-1.5886
X6.3583Y-1.6463
X6.3583Y-1.7041
X6.3583Y-1.7618
X6.4213Y-1.5886
X6.4213Y-1.6463
X6.4213Y-1.7041
X6.4213Y-1.7618
X5.9488Y-3.2972
X5.9488Y-3.3602
X6.0066Y-3.2972
X6.0066Y-3.3602
X6.0643Y-3.2972
X6.0643Y-3.3602
X6.122Y-3.2972
X6.122Y-3.3602
X6.3583Y-4.1752
X6.3583Y-4.2329
X6.3583Y-4.2907
X6.3583Y-4.3484
X6.4213Y-4.1752
X6.4213Y-4.2329
X6.4213Y-4.2907
X6.4213Y-4.3484
X4.9409Y-2.3051
X4.9409Y-2.3629
X4.9409Y-2.4206
X4.9409Y-2.4783
X5.0039Y-2.3051
X5.0039Y-2.3629
X5.0039Y-2.4206
X5.0039Y-2.4783
X6.3583Y-4.8957
X6.3583Y-4.9534
X6.3583Y-5.0112
X6.3583Y-5.0689
X6.4213Y-4.8957
X6.4213Y-4.9534
X6.4213Y-5.0112
X6.4213Y-5.0689
X6.3583Y-3.0256
X6.3583Y-3.0833
X6.3583Y-3.1411
X6.3583Y-3.1988
X6.4213Y-3.0256
X6.4213Y-3.0833
X6.4213Y-3.1411
X6.4213Y-3.1988
T0
M30
