M48
; DRILL file {KiCad (5.99.0-1907-g1c46bf195)} date Fri Oct 23 20:38:16 2020
; FORMAT={-:-/ absolute / inch / decimal}
; #@! TF.CreationDate,2020-10-23T20:38:16+00:00
; #@! TF.GenerationSoftware,Kicad,Pcbnew,(5.99.0-1907-g1c46bf195)
; #@! TF.FileFunction,Plated,1,2,PTH
FMAT,2
INCH
T1C0.0157
T2C0.0197
T3C0.0394
T4C0.1260
%
G90
G05
T1
X3.6496Y-1.6358
X3.6496Y-1.7146
X3.6496Y-1.7933
X3.6496Y-1.872
X3.6496Y-3.5059
X3.6496Y-3.5846
X3.6496Y-3.6634
X3.6496Y-3.7421
X3.6732Y-1.5768
X3.6732Y-3.4469
X3.752Y-1.5768
X3.752Y-3.4469
X3.8307Y-1.5768
X3.8307Y-3.4469
X3.9094Y-1.5768
X3.9094Y-3.4469
X3.9882Y-1.5768
X3.9882Y-3.4469
X4.0669Y-1.5768
X4.0669Y-3.4469
X4.1457Y-1.5768
X4.1457Y-3.4469
X4.1693Y-1.6358
X4.1693Y-1.7146
X4.1693Y-1.7933
X4.1693Y-1.872
X4.1693Y-3.5059
X4.1693Y-3.5846
X4.1693Y-3.6634
X4.1693Y-3.7421
X4.3583Y-1.6358
X4.3583Y-1.7146
X4.3583Y-1.7933
X4.3583Y-1.872
X4.3583Y-3.5059
X4.3583Y-3.5846
X4.3583Y-3.6634
X4.3583Y-3.7421
X4.3819Y-1.5768
X4.3819Y-3.4469
X4.4606Y-1.5768
X4.4606Y-3.4469
X4.5394Y-1.5768
X4.5394Y-3.4469
X4.6181Y-1.5768
X4.6181Y-3.4469
X4.6969Y-1.5768
X4.6969Y-3.4469
X4.7756Y-1.5768
X4.7756Y-3.4469
X4.8543Y-1.5768
X4.8543Y-3.4469
X4.878Y-1.6358
X4.878Y-1.7146
X4.878Y-1.7933
X4.878Y-1.872
X4.878Y-3.5059
X4.878Y-3.5846
X4.878Y-3.6634
X4.878Y-3.7421
X5.0669Y-1.6358
X5.0669Y-1.7146
X5.0669Y-1.7933
X5.0669Y-1.872
X5.0669Y-3.5059
X5.0669Y-3.5846
X5.0669Y-3.6634
X5.0669Y-3.7421
X5.0906Y-1.5768
X5.0906Y-3.4469
X5.1693Y-1.5768
X5.1693Y-3.4469
X5.248Y-1.5768
X5.248Y-3.4469
X5.3268Y-1.5768
X5.3268Y-3.4469
X5.4055Y-1.5768
X5.4055Y-3.4469
X5.4843Y-1.5768
X5.4843Y-3.4469
X5.563Y-1.5768
X5.563Y-3.4469
X5.5866Y-1.6358
X5.5866Y-1.7146
X5.5866Y-1.7933
X5.5866Y-1.872
X5.5866Y-3.5059
X5.5866Y-3.5846
X5.5866Y-3.6634
X5.5866Y-3.7421
X5.7756Y-1.6358
X5.7756Y-1.7146
X5.7756Y-1.7933
X5.7756Y-1.872
X5.7756Y-3.5059
X5.7756Y-3.5846
X5.7756Y-3.6634
X5.7756Y-3.7421
X5.7992Y-1.5768
X5.7992Y-3.4469
X5.878Y-1.5768
X5.878Y-3.4469
X5.9567Y-1.5768
X5.9567Y-3.4469
X6.0354Y-1.5768
X6.0354Y-3.4469
X6.1142Y-1.5768
X6.1142Y-3.4469
X6.1929Y-1.5768
X6.1929Y-3.4469
X6.2717Y-1.5768
X6.2717Y-3.4469
X6.2953Y-1.6358
X6.2953Y-1.7146
X6.2953Y-1.7933
X6.2953Y-1.872
X6.2953Y-3.5059
X6.2953Y-3.5846
X6.2953Y-3.6634
X6.2953Y-3.7421
T2
X5.0846Y-2.9843
X5.1123Y-2.9174
X5.1123Y-3.0511
X5.1791Y-2.8898
X5.1791Y-3.0787
X5.2459Y-2.9174
X5.2459Y-3.0511
X5.2736Y-2.9843
X4.376Y-2.9843
X4.4037Y-2.9174
X4.4037Y-3.0511
X4.4705Y-2.8898
X4.4705Y-3.0787
X4.5373Y-2.9174
X4.5373Y-3.0511
X4.565Y-2.9843
X4.376Y-4.8543
X4.4037Y-4.7875
X4.4037Y-4.9211
X4.4705Y-4.7598
X4.4705Y-4.9488
X4.5373Y-4.7875
X4.5373Y-4.9211
X4.565Y-4.8543
X5.7933Y-4.8543
X5.821Y-4.7875
X5.821Y-4.9211
X5.8878Y-4.7598
X5.8878Y-4.9488
X5.9546Y-4.7875
X5.9546Y-4.9211
X5.9823Y-4.8543
X5.7933Y-2.9843
X5.821Y-2.9174
X5.821Y-3.0511
X5.8878Y-2.8898
X5.8878Y-3.0787
X5.9546Y-2.9174
X5.9546Y-3.0511
X5.9823Y-2.9843
X3.6673Y-2.9843
X3.695Y-2.9174
X3.695Y-3.0511
X3.7618Y-2.8898
X3.7618Y-3.0787
X3.8286Y-2.9174
X3.8286Y-3.0511
X3.8563Y-2.9843
X5.0846Y-4.8543
X5.1123Y-4.7875
X5.1123Y-4.9211
X5.1791Y-4.7598
X5.1791Y-4.9488
X5.2459Y-4.7875
X5.2459Y-4.9211
X5.2736Y-4.8543
X3.6673Y-4.8543
X3.695Y-4.7875
X3.695Y-4.9211
X3.7618Y-4.7598
X3.7618Y-4.9488
X3.8286Y-4.7875
X3.8286Y-4.9211
X3.8563Y-4.8543
T3
X3.8173Y-3.9898
X3.8173Y-4.0898
X3.8173Y-4.1898
X3.8173Y-4.2898
X3.8173Y-4.3898
X3.8173Y-4.4898
X3.9173Y-3.9898
X3.9173Y-4.0898
X3.9173Y-4.1898
X3.9173Y-4.2898
X3.9173Y-4.3898
X3.9173Y-4.4898
X5.2346Y-3.9898
X5.2346Y-4.0898
X5.2346Y-4.1898
X5.2346Y-4.2898
X5.2346Y-4.3898
X5.2346Y-4.4898
X5.3346Y-3.9898
X5.3346Y-4.0898
X5.3346Y-4.1898
X5.3346Y-4.2898
X5.3346Y-4.3898
X5.3346Y-4.4898
X4.526Y-2.1197
X4.526Y-2.2197
X4.526Y-2.3197
X4.526Y-2.4197
X4.526Y-2.5197
X4.526Y-2.6197
X4.626Y-2.1197
X4.626Y-2.2197
X4.626Y-2.3197
X4.626Y-2.4197
X4.626Y-2.5197
X4.626Y-2.6197
X5.9433Y-2.1197
X5.9433Y-2.2197
X5.9433Y-2.3197
X5.9433Y-2.4197
X5.9433Y-2.5197
X5.9433Y-2.6197
X6.0433Y-2.1197
X6.0433Y-2.2197
X6.0433Y-2.3197
X6.0433Y-2.4197
X6.0433Y-2.5197
X6.0433Y-2.6197
X5.2346Y-2.1197
X5.2346Y-2.2197
X5.2346Y-2.3197
X5.2346Y-2.4197
X5.2346Y-2.5197
X5.2346Y-2.6197
X5.3346Y-2.1197
X5.3346Y-2.2197
X5.3346Y-2.3197
X5.3346Y-2.4197
X5.3346Y-2.5197
X5.3346Y-2.6197
X3.8173Y-2.1197
X3.8173Y-2.2197
X3.8173Y-2.3197
X3.8173Y-2.4197
X3.8173Y-2.5197
X3.8173Y-2.6197
X3.9173Y-2.1197
X3.9173Y-2.2197
X3.9173Y-2.3197
X3.9173Y-2.4197
X3.9173Y-2.5197
X3.9173Y-2.6197
X4.526Y-3.9898
X4.526Y-4.0898
X4.526Y-4.1898
X4.526Y-4.2898
X4.526Y-4.3898
X4.526Y-4.4898
X4.626Y-3.9898
X4.626Y-4.0898
X4.626Y-4.1898
X4.626Y-4.2898
X4.626Y-4.3898
X4.626Y-4.4898
X5.9433Y-3.9898
X5.9433Y-4.0898
X5.9433Y-4.1898
X5.9433Y-4.2898
X5.9433Y-4.3898
X5.9433Y-4.4898
X6.0433Y-3.9898
X6.0433Y-4.0898
X6.0433Y-4.1898
X6.0433Y-4.2898
X6.0433Y-4.3898
X6.0433Y-4.4898
T4
X5.1791Y-2.9843
X4.4705Y-2.9843
X4.4705Y-4.8543
X5.8878Y-4.8543
X5.8878Y-2.9843
X3.7618Y-2.9843
X5.1791Y-4.8543
X3.7618Y-4.8543
T0
M30
